<svg id="Layer_1" data-name="Layer 1" xmlns="http://www.w3.org/2000/svg" viewBox="0 0 770.57 770.58"><defs><style>.cls-1{fill:#6e3fa3;}.cls-2{fill:#fff;}.cls-3{fill:#232323;}.cls-4{fill:#bba600;}.cls-5{fill:#f93822;}</style></defs><path class="cls-1" d="M652.21,472c13.94,6.55,26.69,13.47,38.09,20.24q3.62-10.26,6.53-20.84a321.82,321.82,0,0,0,11-65.74c.41-6.73.64-13.5.64-20.32a322.78,322.78,0,0,0-7.51-69.4q-22.1-9.08-44.17-16.52A286.05,286.05,0,0,1,652.21,472Z"/><path class="cls-2" d="M209.49,219.48l13.15-37.71a9.85,9.85,0,0,1,18.61,0l10.49,30.08c24.3-3.91,49.6-7.14,75.72-9.38q17.32-1.51,34.42-2.34L380.08,148A7.38,7.38,0,0,1,394,148l17.75,50.86a877,877,0,0,1,112.58,7.29l8.5-24.4a9.85,9.85,0,0,1,18.61,0L562,212q28.77,5.1,56.85,12.21,11.82,3,23.48,6.33c4-8,7.36-17.63,10.05-27.11C594,117.83,495.81,61.55,384.7,61.55A321.84,321.84,0,0,0,208,114.16a326.26,326.26,0,0,0-98,100.06c2.76,9.52,6.15,19.2,10.27,27.05C147.5,233.44,177.41,226,209.49,219.48Z"/><path class="cls-3" d="M35.89,547.61q2.91,6.24,6,12.38C96.25,666.32,198.52,744.24,320,765a386.91,386.91,0,0,0,130.48,0C573,744.07,676,665.07,730,557.41v0c3.45-6.87,6.67-13.83,9.72-20.92,1.16-2.69,2.27-5.4,3.38-8.13A385.48,385.48,0,0,0,744.6,246.2C687.36,98.85,541.93-4.89,373.49.18,199.36,5.4,53.69,127.41,12,289.9A383.25,383.25,0,0,0,35.89,547.61ZM384.7,709c-114.79,0-215.83-60-273.32-150.4,29.87-24.92,80.14-55.44,145.23-52.91,69.6,2.73,104.14,46.73,119.21,74.92a31.85,31.85,0,0,0,36.58,15.8,30.06,30.06,0,0,0,18.51-43,221.39,221.39,0,0,0-17.7-28.34c55.17-31,117.58-34,186.05-8.66a369.57,369.57,0,0,1,65,32C608,644.43,503.76,709,384.7,709ZM207.55,447.38a259.65,259.65,0,0,0-41.78,10.49,230.21,230.21,0,0,1,2.9-166.1c17.28-4.46,35.38-8.64,54.19-12.39a187.32,187.32,0,0,0-15.31,168ZM382.12,289a89.57,89.57,0,1,0,0,179.13q3.92,0,7.73-.35c-7.31,3.84-14.53,8.08-21.62,12.66-24.86-17.83-57.85-32.43-100.66-35.67a132.23,132.23,0,0,1,46-179.38,899.7,899.7,0,0,1,96.07-5.22q16.24,0,32.77.64a132.25,132.25,0,0,1,57.83,177.31,254.64,254.64,0,0,0-61.77,10A89.52,89.52,0,0,0,382.12,289Zm53.4,89.56a53.4,53.4,0,1,1-53.4-53.39A53.46,53.46,0,0,1,435.52,378.52Zm99.41-108.84q27.66,4.32,55.71,10.86a230.12,230.12,0,0,1,9.9,171.37,333.84,333.84,0,0,0-41.78-10,187.52,187.52,0,0,0-23.83-172.26Zm166,46.21a322.78,322.78,0,0,1,7.51,69.4c0,6.82-.23,13.59-.64,20.32a321.82,321.82,0,0,1-11,65.74q-2.91,10.57-6.53,20.84c-11.4-6.77-24.15-13.69-38.09-20.24a286.05,286.05,0,0,0,4.56-172.58Q678.85,306.79,700.94,315.89ZM208,114.16A321.84,321.84,0,0,1,384.7,61.55c111.11,0,209.34,56.28,267.64,141.83-2.69,9.48-6,19.16-10.05,27.11q-11.67-3.33-23.48-6.33Q590.75,217,562,212l-10.51-30.18a9.85,9.85,0,0,0-18.61,0l-8.5,24.4a877,877,0,0,0-112.58-7.29L394,148a7.38,7.38,0,0,0-13.93,0l-18.2,52.11q-17.1.85-34.42,2.34c-26.12,2.24-51.42,5.47-75.72,9.38l-10.49-30.08a9.85,9.85,0,0,0-18.61,0l-13.15,37.71c-32.08,6.48-62,14-89.24,21.79-4.12-7.85-7.51-17.53-10.27-27.05A326.26,326.26,0,0,1,208,114.16ZM67,323.2c11.74-4.25,24.29-8.59,37.61-12.87a285.83,285.83,0,0,0,10.76,170.61A313.8,313.8,0,0,0,83,502.6c-1.48-3.79-2.89-7.63-4.24-11.49a321.65,321.65,0,0,1-17.13-85.5c-.41-6.73-.64-13.5-.64-20.32A324,324,0,0,1,67,323.2Z"/><path class="cls-4" d="M600.54,451.91a230.12,230.12,0,0,0-9.9-171.37q-28-6.57-55.71-10.86a187.52,187.52,0,0,1,23.83,172.26A333.84,333.84,0,0,1,600.54,451.91Z"/><path class="cls-1" d="M438.5,448.05a254.64,254.64,0,0,1,61.77-10,132.25,132.25,0,0,0-57.83-177.31q-16.51-.66-32.77-.64a899.7,899.7,0,0,0-96.07,5.22,132.23,132.23,0,0,0-46,179.38c42.81,3.24,75.8,17.84,100.66,35.67,7.09-4.58,14.31-8.82,21.62-12.66q-3.81.35-7.73.35a89.69,89.69,0,1,1,56.38-20Z"/><circle class="cls-4" cx="382.12" cy="378.52" r="53.4"/><path class="cls-4" d="M168.67,291.77a230.21,230.21,0,0,0-2.9,166.1,259.65,259.65,0,0,1,41.78-10.49,187.32,187.32,0,0,1,15.31-168C204.05,283.13,186,287.31,168.67,291.77Z"/><path class="cls-1" d="M78.73,491.11c1.35,3.86,2.76,7.7,4.24,11.49a313.8,313.8,0,0,1,32.35-21.66,285.83,285.83,0,0,1-10.76-170.61C91.24,314.61,78.69,319,67,323.2a324,324,0,0,0-6,62.09c0,6.82.23,13.59.64,20.32A321.65,321.65,0,0,0,78.73,491.11Z"/><path class="cls-5" d="M413.21,525.08a221.39,221.39,0,0,1,17.7,28.34,30.06,30.06,0,0,1-18.51,43,31.85,31.85,0,0,1-36.58-15.8c-15.07-28.19-49.61-72.19-119.21-74.92-65.09-2.53-115.36,28-145.23,52.91C168.87,649,269.91,709,384.7,709,503.76,709,608,644.43,664.25,548.42a369.57,369.57,0,0,0-65-32C530.79,491.11,468.38,494,413.21,525.08Z"/></svg>