<svg id="Layer_1" data-name="Layer 1" xmlns="http://www.w3.org/2000/svg" viewBox="0 0 770.58 770.58"><defs><style>.cls-1{fill:none;}.cls-2{fill:#fff;}.cls-3{fill:#232323;}.cls-4{fill:#6e3fa3;}.cls-5{fill:#bba600;}.cls-6{fill:#00c65e;}</style></defs><path class="cls-1" d="M187,641.05l.91.72.22.17c.2.15.4.32.59.45l1.18.88-1.74-1.33Z"/><path class="cls-1" d="M274.11,689.36l.36.13c-.82-.3-1.64-.62-2.46-.93Z"/><path class="cls-1" d="M284.5,693c.61.23,1.2.42,1.8.59l.24.08-2.14-.7Z"/><path class="cls-1" d="M258.4,683.13l3.55,1.5,1.5.59q-3.13-1.28-6.23-2.61Z"/><path class="cls-1" d="M193,645.61c1.43,1.06,2.85,2.12,4.31,3.15,1.15.84,2.34,1.65,3.52,2.46.91.64,1.79,1.28,2.7,1.9.47.3.92.62,1.38.91l1.28.84q-6.82-4.54-13.41-9.42Z"/><path class="cls-1" d="M309.39,700c.75.19,1.51.35,2.27.53l-2.72-.64Z"/><path class="cls-1" d="M268.13,687.09l0,0-1.47-.59C267.18,686.71,267.65,686.91,268.13,687.09Z"/><path class="cls-1" d="M280.21,691.53l.42.13c-.52-.17-1-.36-1.55-.54Z"/><path class="cls-1" d="M535.39,98.5c-.42-.23-.86-.43-1.28-.66,1.25.65,2.5,1.31,3.74,2C537,99.38,536.21,98.93,535.39,98.5Z"/><path class="cls-1" d="M530.79,96.14l-1-.49,1.27.63Z"/><path class="cls-1" d="M319.51,702.31l1,.19c-.82-.16-1.63-.34-2.44-.51Z"/><path class="cls-1" d="M545.26,103.92a1,1,0,0,0-.17-.1l.19.11Z"/><path class="cls-1" d="M554.91,109.65l-.27-.17,2.32,1.46Z"/><path class="cls-1" d="M343.46,706.35l3.68.43c-1.45-.17-2.91-.34-4.36-.53Z"/><path class="cls-1" d="M513.93,682.32c-4.56,2-9.15,3.9-13.81,5.67C504.78,686.22,509.37,684.3,513.93,682.32Z"/><path class="cls-1" d="M546.81,665.77q-11.62-1.08-23.71-2.53,12.07,1.46,23.71,2.53Z"/><path class="cls-1" d="M520.5,91.16l-.81-.37,2.5,1.17Z"/><path class="cls-1" d="M420.17,63.42l-.94-.1c.94.1,1.87.22,2.81.33C421.42,63.58,420.8,63.48,420.17,63.42Z"/><path class="cls-1" d="M305.15,71.59c-.71.17-1.4.35-2.09.54l-.67.19c1.38-.37,2.77-.73,4.15-1.07Z"/><path class="cls-1" d="M276.67,80.31l-.19.07.4-.14Z"/><path class="cls-1" d="M283,78.14c-.5.15-1,.3-1.41.47l-.41.14c1-.33,2-.67,3-1Z"/><path class="cls-1" d="M287.08,76.76l-.75.25c2.27-.73,4.54-1.43,6.83-2.11Q290.1,75.8,287.08,76.76Z"/><path class="cls-1" d="M309.41,70.53l-.35.09,2.13-.49Z"/><path class="cls-1" d="M326.2,67l-.86.17,1.88-.34Z"/><path class="cls-1" d="M331.72,66l-.51.09c1.29-.22,2.6-.41,3.9-.62C334,65.63,332.85,65.79,331.72,66Z"/><path class="cls-1" d="M320.86,68l-1.53.32,2.09-.43Z"/><path class="cls-1" d="M235.21,98.5l-.5.27.67-.36Z"/><path class="cls-1" d="M220,107l-.39.24.91-.54C220.34,106.82,220.16,106.91,220,107Z"/><path class="cls-1" d="M240.23,95.92l-.38.19,1.1-.55Z"/><path class="cls-1" d="M510.25,86.63l-1.15-.46,1.66.68Z"/><path class="cls-1" d="M266,84.32l-.23.09.59-.23Z"/><path class="cls-1" d="M255.55,88.7l-1.16.52,1.66-.73Z"/><path class="cls-1" d="M260.76,86.46l-.88.38c.82-.35,1.65-.69,2.49-1Z"/><path class="cls-1" d="M455.38,69.2l-.54-.1c.6.13,1.21.25,1.8.39Z"/><path class="cls-1" d="M460.43,70.34,458.82,70c1.87.43,3.73.9,5.59,1.36C463.08,71,461.75,70.66,460.43,70.34Z"/><path class="cls-1" d="M432.51,65c-1.1-.16-2.21-.31-3.32-.45l3.62.5Z"/><path class="cls-1" d="M493.93,80.31c-.32-.12-.65-.22-1-.33l1.92.68Z"/><path class="cls-1" d="M499.27,82.28c-.23-.1-.48-.18-.71-.27l1.27.49Z"/><path class="cls-1" d="M472.14,73.39c-1.67-.47-3.32-.94-5-1.35l-.3-.08c1.86.48,3.71,1,5.56,1.51Z"/><path class="cls-1" d="M370.89,61.9l3.49-.15C373.22,61.79,372.05,61.84,370.89,61.9Z"/><path class="cls-1" d="M355.35,62.94,357,62.8C356.45,62.84,355.9,62.88,355.35,62.94Z"/><path class="cls-1" d="M344.91,64.06c-1.35.17-2.7.34-4.06.54l-.83.12c1.77-.25,3.53-.49,5.31-.71Z"/><path class="cls-1" d="M415,62.9c-1.31-.12-2.62-.22-3.92-.32,2.05.16,4.09.34,6.14.54Z"/><path class="cls-1" d="M352.5,63.2l-4.76.51-1.08.14q3.3-.41,6.62-.73Z"/><path class="cls-1" d="M398,61.79c-.57,0-1.13,0-1.7,0l-1.26,0c1.81,0,3.61.12,5.41.21Z"/><path class="cls-1" d="M392,61.62c-2.24,0-4.45-.07-6.69-.07,2.48,0,4.95,0,7.42.09Z"/><path class="cls-1" d="M383.08,61.58c.74,0,1.47,0,2.21,0C384.55,61.55,383.82,61.55,383.08,61.58Z"/><path class="cls-2" d="M95.87,530.25l.22.43L95,528.4C95.25,529,95.55,529.63,95.87,530.25Z"/><path class="cls-2" d="M74.5,476c.11.37.23.74.34,1.11-.15-.52-.32-1-.47-1.55C74.42,475.71,74.45,475.86,74.5,476Z"/><path class="cls-2" d="M83.36,502.13c.42,1.06.84,2.14,1.28,3.2.08.19.16.38.23.57-.6-1.49-1.2-3-1.78-4.48Z"/><path class="cls-2" d="M81.51,497.23c.39,1.09.81,2.17,1.23,3.24-.53-1.38-1-2.76-1.55-4.15C81.3,496.62,81.41,496.93,81.51,497.23Z"/><path class="cls-2" d="M86.07,508.85c.16.38.33.76.48,1.14-.2-.49-.42-1-.62-1.48C86,508.62,86,508.74,86.07,508.85Z"/><path class="cls-2" d="M98.48,535.32l.21.4-.45-.87Z"/><path class="cls-2" d="M72.72,469.71c.31,1.15.65,2.28,1,3.43-.38-1.34-.76-2.69-1.12-4Z"/><path class="cls-2" d="M78.83,489.67l.33.94-.42-1.22Z"/><path class="cls-2" d="M104.55,486.76q24.21,20.34,50,38.49Q128.76,507.1,104.55,486.76Z"/><path class="cls-2" d="M183.86,638.57c.62.5,1.26,1,1.89,1.49l-3.73-3C182.63,637.58,183.24,638.08,183.86,638.57Z"/><path class="cls-2" d="M179.55,635.07c.36.31.73.6,1.1.9-1.4-1.15-2.8-2.3-4.18-3.47C177.49,633.37,178.51,634.22,179.55,635.07Z"/><path class="cls-2" d="M171.69,628.38c.67.59,1.37,1.17,2.05,1.76-.79-.68-1.58-1.35-2.35-2Z"/><path class="cls-2" d="M166.7,623.9c.81.75,1.64,1.47,2.46,2.21-1.06-1-2.12-1.9-3.17-2.87Z"/><path class="cls-2" d="M132.08,413.18h0q-6.72-6.12-13.31-12.44Q125.35,407.05,132.08,413.18Z"/><path class="cls-2" d="M161.06,618.6c1,.94,1.92,1.83,2.88,2.74l2,1.83c-2-1.84-4-3.72-5.9-5.6C160.36,617.91,160.7,618.26,161.06,618.6Z"/><path class="cls-2" d="M373,554.2q22,7.45,44.84,13.61C481.43,542.38,526.5,480.1,526.5,407.47a171.28,171.28,0,0,0-15.24-70.85q-95.89-62.56-213.84-92.3C229.87,267.76,181.25,332,181.25,407.47a171.91,171.91,0,0,0,8.14,52.44q6.92,5.05,14,9.9c-.1-1.9-.14-3.8-.14-5.72A108.77,108.77,0,1,1,373,554.2Z"/><path class="cls-2" d="M124.89,577.44l.15.19-.41-.55Z"/><path class="cls-2" d="M108.25,552.62l.55.89-1-1.58C108,552.16,108.11,552.4,108.25,552.62Z"/><path class="cls-2" d="M101.65,541.23l.24.41-.6-1.09Z"/><path class="cls-2" d="M111.7,558.19c.27.44.56.88.85,1.32-.42-.65-.84-1.31-1.25-2C111.43,557.76,111.56,558,111.7,558.19Z"/><path class="cls-2" d="M104.85,546.89l.81,1.4c.13.21.26.42.38.63-.51-.86-1-1.72-1.5-2.58C104.65,546.52,104.75,546.7,104.85,546.89Z"/><path class="cls-2" d="M133.76,588.89c.53.66,1.09,1.31,1.63,2-.61-.73-1.22-1.46-1.82-2.21Z"/><path class="cls-2" d="M664.1,220.91c-.24-.41-.49-.8-.73-1.2.43.71.85,1.42,1.27,2.14C664.46,221.54,664.29,221.22,664.1,220.91Z"/><path class="cls-2" d="M679.29,249.81c-.49-1.08-1-2.19-1.53-3.27-.08-.19-.18-.37-.27-.56.69,1.44,1.36,2.89,2,4.35C679.44,250.16,679.37,250,679.29,249.81Z"/><path class="cls-2" d="M672.2,235.41c-.35-.67-.72-1.33-1.08-2,.67,1.25,1.33,2.5,2,3.76C672.81,236.58,672.51,236,672.2,235.41Z"/><path class="cls-2" d="M688,270.39c-.23-.63-.49-1.26-.74-1.89.41,1,.8,2.08,1.19,3.12Z"/><path class="cls-2" d="M694,287.82c-.5-1.62-1-3.22-1.58-4.85l-.21-.62c.67,2,1.33,4,2,6C694.15,288.21,694.1,288,694,287.82Z"/><path class="cls-2" d="M660.38,214.75l-1.47-2.3q1.22,1.91,2.4,3.83Z"/><path class="cls-2" d="M637.46,182.5c-.12-.16-.26-.31-.39-.46.52.63,1,1.26,1.54,1.9Z"/><path class="cls-2" d="M643.39,190.08c-1-1.33-2-2.65-3-4l0,0c1.15,1.47,2.28,2.95,3.41,4.45C643.61,190.38,643.51,190.23,643.39,190.08Z"/><path class="cls-2" d="M655.83,207.66l-1.57-2.35q1.28,1.91,2.54,3.86C656.48,208.66,656.17,208.16,655.83,207.66Z"/><path class="cls-2" d="M708,358.75c-.13-1.7-.27-3.37-.45-5.07,0-.27-.06-.54-.09-.81q.33,3.36.6,6.73Z"/><path class="cls-2" d="M708.88,375.37c-.06-2.14-.15-4.26-.26-6.38.12,2.48.22,5,.29,7.48Z"/><path class="cls-2" d="M708.27,363c0-.56-.09-1.12-.13-1.68q.21,3,.38,6C708.44,365.81,708.36,364.38,708.27,363Z"/><path class="cls-2" d="M588.78,301.09Q569,286.36,548.19,273,568.95,286.36,588.78,301.09Z"/><path class="cls-2" d="M709,380c0-.7,0-1.4-.05-2.1.06,2.47.1,4.95.1,7.44C709,383.49,709,381.72,709,380Z"/><path class="cls-2" d="M698,301.29c-.15-.55-.32-1.08-.47-1.63.34,1.24.69,2.47,1,3.72C698.34,302.68,698.17,302,698,301.29Z"/><path class="cls-2" d="M695.49,292.52c-.23-.77-.47-1.53-.71-2.29.41,1.33.8,2.68,1.2,4C695.81,293.68,695.66,293.09,695.49,292.52Z"/><path class="cls-2" d="M699.8,308.38c-.22-.9-.45-1.78-.68-2.67q.63,2.51,1.23,5C700.16,310,700,309.16,699.8,308.38Z"/><path class="cls-2" d="M705.88,340.09c-.17-1.31-.37-2.61-.57-3.92,0,0,0-.06,0-.09q.54,3.56,1,7.12C706.16,342.16,706,341.13,705.88,340.09Z"/><path class="cls-2" d="M703.22,324.09c-.17-.91-.36-1.81-.54-2.71q.59,2.88,1.11,5.79C703.61,326.14,703.43,325.12,703.22,324.09Z"/><path class="cls-2" d="M620.87,163.47l-.08-.08.15.16Z"/><path class="cls-2" d="M574.41,383.32h0q7.74,6.46,15.31,13.18Q582.16,389.78,574.41,383.32Z"/><path class="cls-2" d="M613.8,156.18c-1.13-1.1-2.26-2.24-3.42-3.34l-.32-.31c1.26,1.22,2.52,2.44,3.77,3.68Z"/><path class="cls-2" d="M600,143.16l-1.24-1.07,2.77,2.46Z"/><path class="cls-2" d="M617.42,159.85c-.76-.8-1.56-1.58-2.34-2.38q1.65,1.68,3.29,3.38Z"/><path class="cls-2" d="M173.56,140.6l0,0,.06-.06Z"/><path class="cls-2" d="M586.84,132.13l-.65-.52,1.28,1C587.26,132.48,587.06,132.3,586.84,132.13Z"/><path class="cls-2" d="M203.85,117.31l-.8.55,1-.66Z"/><path class="cls-2" d="M187.06,129.5c-.79.61-1.56,1.24-2.34,1.86.87-.69,1.73-1.39,2.62-2.07A2.92,2.92,0,0,0,187.06,129.5Z"/><path class="cls-2" d="M584.09,129.94c-1.18-.94-2.39-1.85-3.6-2.76l-.35-.25q2.24,1.68,4.44,3.4Z"/><path class="cls-3" d="M385.29,770.58A386.24,386.24,0,0,0,672.42,641.94a391.64,391.64,0,0,0,38.09-50.24q9.12-14.37,17-29.57a383,383,0,0,0,43-176.84c0-106.4-43.36-202.86-113.32-272.66C587.51,43.06,491.32,0,385.29,0S183.09,43.06,113.35,112.63A391.56,391.56,0,0,0,83.53,146,383.71,383.71,0,0,0,0,379.92c0,1.8,0,3.57,0,5.37A383.63,383.63,0,0,0,98.18,641.94C168.79,720.85,271.35,770.58,385.29,770.58ZM681.74,515.35q-5.54,12.55-12.08,24.55t-14,23.34q-7.5,11.34-15.9,22-4.2,5.32-8.61,10.47-11.21,0-23.34-.32-8.09-.23-16.54-.62t-17.27-1c-11.74-.8-23.93-1.87-36.5-3.28-15.71-1.76-32-4-48.8-7a223.21,223.21,0,0,0,60.46-70.79q3-5.53,5.69-11.25t5.05-11.6Q561,487,562.14,484a220.71,220.71,0,0,0,13.6-76.51q0-9.2-.75-18.18c-.16-2-.36-4-.58-6h0q7.74,6.46,15.31,13.18,15.13,13.44,29.57,27.85Q640.94,446,661,469.85q13.38,15.9,26,32.8Q684.52,509.07,681.74,515.35ZM312,355.33A108.76,108.76,0,0,0,203.26,464.09c0,1.92,0,3.82.14,5.72q-7.08-4.85-14-9.9a171.91,171.91,0,0,1-8.14-52.44c0-75.43,48.62-139.71,116.17-163.15Q415.23,274,511.26,336.62a171.28,171.28,0,0,1,15.24,70.85c0,72.63-45.07,134.91-108.71,160.34Q395,561.69,373,554.2A108.77,108.77,0,0,0,312,355.33ZM173.53,140.63l0,0,0,0q5.46-4.73,11.13-9.21c.78-.62,1.55-1.25,2.34-1.86a2.92,2.92,0,0,1,.28-.21q7.66-6,15.71-11.43l.8-.55.16-.11q7.65-5.19,15.6-9.94L220,107c.16-.11.34-.2.52-.3q7-4.16,14.19-8l.5-.27.17-.09q2.22-1.16,4.47-2.3l.38-.19.72-.36q6.63-3.32,13.44-6.34l1.16-.52.5-.21c1.27-.56,2.55-1.11,3.83-1.65l.88-.38,1.61-.65,3.41-1.4.23-.09.36-.14q5-2,10.11-3.8l.19-.07.21-.07c1.41-.51,2.83-1,4.25-1.49l.41-.14c.45-.17.91-.32,1.41-.47l1.15-.38,2.23-.75.75-.25q3-1,6.08-1.86c3-.91,6.14-1.76,9.23-2.58l.67-.19c.69-.19,1.38-.37,2.09-.54l1.39-.34c.84-.21,1.68-.43,2.52-.63l.35-.09,1.78-.4c2.7-.64,5.42-1.24,8.14-1.81l1.53-.32.56-.11,3.92-.76.86-.17,1-.17c1.33-.24,2.65-.49,4-.72l.51-.09c1.13-.19,2.26-.35,3.39-.53,1.64-.25,3.27-.5,4.91-.73l.83-.12c1.36-.2,2.71-.37,4.06-.54l.42,0,1.33-.16,1.08-.14,4.76-.51.78-.08,2.07-.18c.55-.06,1.1-.1,1.65-.14,1.51-.14,3-.28,4.55-.39,3.1-.23,6.21-.38,9.34-.51,1.16-.06,2.33-.11,3.49-.15l2.28-.08c2.14-.06,4.28-.07,6.42-.09.74,0,1.47,0,2.21,0,2.24,0,4.45,0,6.69.07l.73,0,2.37.07,1.26,0c.57,0,1.13,0,1.7,0l2.45.13,2.88.14q3.24.16,6.47.41l1.27.11c1.3.1,2.61.2,3.92.32l2.22.22,2,.2.94.1c.63.06,1.25.16,1.87.23,2.39.27,4.78.56,7.15.89,1.11.14,2.22.29,3.32.45l.3.05c3.61.54,7.2,1.12,10.77,1.78l1.44.27c3.29.62,6.57,1.29,9.82,2l.54.1,1.26.29,2.18.49,1.61.36c1.32.32,2.65.67,4,1l2.44.62.3.08c1.67.41,3.32.88,5,1.35l.27.08q5.18,1.44,10.27,3.06c.47.14.94.3,1.4.45q4.47,1.44,8.88,3c.32.11.65.21,1,.33l.95.35c1.23.44,2.45.89,3.68,1.35.23.09.48.17.71.27l.56.22q4.67,1.77,9.27,3.67l1.15.46.51.22q4.5,1.91,8.93,3.94l.81.37,1.69.8c2.55,1.2,5.09,2.43,7.6,3.69l1,.49.27.14,3.05,1.56c.42.23.86.43,1.28.66.82.43,1.64.88,2.46,1.32,2.43,1.3,4.85,2.64,7.24,4a1,1,0,0,1,.17.1h0c.9.51,1.8,1,2.69,1.56,1.22.71,2.44,1.43,3.65,2.16,1,.6,2,1.22,3,1.83l.27.17,2.05,1.29q6.25,3.93,12.32,8.13l1.61,1.11q4.68,3.3,9.25,6.75l.35.25c1.21.91,2.42,1.82,3.6,2.76l.49.39,1.61,1.28.65.52c.22.17.42.35.63.51q2.56,2.06,5.09,4.16l2.35,2q1.92,1.64,3.82,3.3l1.24,1.07,1.53,1.39q4.35,3.91,8.56,8l.32.31c1.16,1.1,2.29,2.24,3.42,3.34l0,0,1.25,1.26c.78.8,1.58,1.58,2.34,2.38l1,1c.81.84,1.62,1.69,2.42,2.54l.08.08.07.08q3.9,4.15,7.66,8.43c.35.39.71.78,1,1.18,2.53,2.91,5,5.88,7.42,8.88.13.15.27.3.39.46l1.15,1.44c.56.71,1.14,1.42,1.7,2.14l0,0c1,1.31,2,2.63,3,4,.12.15.22.3.33.45q2.31,3.06,4.56,6.18c.13.19.27.37.41.56q2.84,4,5.57,8l1.57,2.35c.34.5.65,1,1,1.51.71,1.09,1.41,2.18,2.11,3.28l1.47,2.3.93,1.53c.69,1.14,1.38,2.28,2.06,3.43.24.4.49.79.73,1.2s.36.63.54.94q1.36,2.31,2.68,4.65c.57,1,1.14,2,1.7,3,.71,1.29,1.41,2.59,2.1,3.89.36.67.73,1.33,1.08,2s.61,1.17.91,1.76q2.25,4.37,4.38,8.81c.09.19.19.37.27.56.52,1.08,1,2.19,1.53,3.27.08.17.15.35.23.52q1.37,3,2.67,6c.37.84.74,1.67,1.1,2.5q2,4.81,3.93,9.7c.25.63.51,1.26.74,1.89l.45,1.23c.45,1.2.91,2.4,1.35,3.61.55,1.52,1.08,3,1.61,4.59.3.84.59,1.68.88,2.53l.21.62c.54,1.63,1.08,3.23,1.58,4.85.06.19.11.39.17.58.2.61.38,1.22.57,1.83s.48,1.52.71,2.29c.17.57.32,1.16.49,1.73q.79,2.7,1.53,5.41c.15.55.32,1.08.47,1.63s.36,1.39.54,2.09l.6,2.33c.23.89.46,1.77.68,2.67s.36,1.57.55,2.35.39,1.62.57,2.44c.39,1.68.75,3.38,1.11,5.08.22,1,.44,2.09.65,3.13s.37,1.8.54,2.71.39,2.05.57,3.08c.54,3,1.05,5.93,1.51,8.91,0,0,0,.06,0,.09.2,1.31.4,2.61.57,3.92.15,1,.28,2.07.42,3.11.41,3.21.79,6.43,1.11,9.67,0,.27.07.54.09.81.18,1.7.32,3.37.45,5.07l.06.85c0,.56.09,1.12.13,1.68s.09,1.12.13,1.68c.09,1.42.17,2.85.25,4.28,0,.58.07,1.16.1,1.75.11,2.12.2,4.24.26,6.38l0,1.1c0,.46,0,.92,0,1.38,0,.7,0,1.4.05,2.1,0,1.77,0,3.54,0,5.34q0,13.21-1,26.14Q685.82,386.1,661.86,363q-9.58-9.22-19.44-18.07-19.71-17.7-40.52-33.89-6.51-5.07-13.12-10Q569,286.36,548.19,273q-4.71-3-9.46-6t-9.56-5.86q-9.6-5.81-19.38-11.3-8.73-4.91-17.59-9.59a784.14,784.14,0,0,0-130.72-54.47q-39.18-12.33-80.33-20.95c-25.93-5.42-51-9.42-74.8-12.31-14.29-1.74-28.15-3.08-41.5-4.09C167.69,145.76,170.6,143.17,173.53,140.63ZM67,325.75a320.34,320.34,0,0,1,7.69-32q2.31-7.84,5-15.52A323.69,323.69,0,0,1,107,219.92c16.68.2,34.8.91,54.05,2.37s39.65,3.68,60.9,6.89a223.49,223.49,0,0,0-59.26,65.75q-4.87,8.25-9,16.95-2.77,5.79-5.22,11.76A220.51,220.51,0,0,0,132,407.47c0,1.92,0,3.82.07,5.71h0q-6.72-6.12-13.31-12.44t-13-12.85q-17.18-17.4-33.33-36.21-4-4.71-8-9.5Q65.51,333.9,67,325.75Zm28.84,204.5c-.32-.62-.62-1.24-.92-1.85q-4.47-9-8.4-18.41c-.15-.38-.32-.76-.48-1.14,0-.11-.09-.23-.14-.34-.36-.87-.71-1.74-1.06-2.61-.07-.19-.15-.38-.23-.57-.44-1.06-.86-2.14-1.28-3.2l-.27-.71-.35-.95c-.42-1.07-.84-2.15-1.23-3.24-.1-.3-.21-.61-.32-.91-.7-1.9-1.37-3.8-2-5.71l-.33-.94-.09-.28q-2.07-6.09-3.9-12.27c-.11-.37-.23-.74-.34-1.11,0-.15-.08-.3-.13-.44-.23-.81-.45-1.62-.68-2.43-.32-1.15-.66-2.28-1-3.43l-.15-.6q-.64-2.44-1.26-4.89c-.17-.68-.35-1.36-.52-2.05q-.87-3.56-1.66-7.14,17.27,16.49,35.42,31.73,24.21,20.34,50,38.49,6.43,4.54,13,8.94c2.82,1.9,5.63,3.82,8.48,5.68,1,.7,2.08,1.37,3.13,2l1.08.71q15.92,10.26,32.38,19.72T246,580.48q17,8.65,34.45,16.49,11.64,5.24,23.5,10.09,5.94,2.43,11.92,4.77,12,4.68,24.14,9t24.55,8.25c5.75,1.83,11.55,3.57,17.36,5.29,1.53.45,3.06.91,4.6,1.35q8.14,2.34,16.37,4.52c1.75.47,3.51.93,5.26,1.38q7.74,2,15.53,3.87c1.26.3,2.51.61,3.77.9q9.84,2.31,19.78,4.4,26.31,5.51,51.32,9.16,12.46,1.84,24.55,3.3t23.71,2.53a321.84,321.84,0,0,1-32.88,16.55c-4.56,2-9.15,3.9-13.81,5.67q-9.75,3.71-19.77,6.8A322.81,322.81,0,0,1,385.29,709q-3.71,0-7.4-.09c-1.07,0-2.13-.07-3.2-.1-1.4-.05-2.79-.08-4.18-.15-1,0-2-.11-3-.16l-4.56-.27-1.78-.14q-7-.52-14-1.34l-3.68-.43-.68-.1q-11.28-1.49-22.3-3.75l-1-.19L318,702c-2.14-.46-4.26-.93-6.38-1.42-.76-.18-1.52-.34-2.27-.53l-.45-.11q-11.35-2.76-22.4-6.31l-.24-.08c-.6-.17-1.19-.36-1.8-.59l-.1,0c-1.26-.41-2.52-.83-3.77-1.26l-.42-.13-1.13-.41c-1.54-.54-3.08-1.07-4.61-1.63l-.36-.13-2.1-.8c-1.28-.48-2.57-.95-3.84-1.45l0,0c-.48-.18-.95-.38-1.43-.57l-3.25-1.3-1.5-.59-3.55-1.5-1.18-.52-3.48-1.54c-1-.45-2-.89-3-1.35-1.35-.62-2.69-1.26-4-1.89l-2.29-1.09q-14.43-7-28-15.37l-1-.6q-4.65-2.87-9.18-5.9L205,654c-.46-.29-.91-.61-1.38-.91-.91-.62-1.79-1.26-2.7-1.9-1.18-.81-2.37-1.62-3.52-2.46-1.46-1-2.88-2.09-4.31-3.15l-.22-.16c-1-.72-1.93-1.45-2.89-2.18l-1.18-.88c-.19-.13-.39-.3-.59-.45l-.22-.17-.91-.72-1.28-1c-.63-.5-1.27-1-1.89-1.49s-1.23-1-1.84-1.49L180.65,636c-.37-.3-.74-.59-1.1-.9-1-.85-2.06-1.7-3.08-2.57s-1.82-1.57-2.73-2.36c-.68-.59-1.38-1.17-2.05-1.76l-.3-.28-2.23-2c-.82-.74-1.65-1.46-2.46-2.21l-.71-.66-.08-.07-2-1.83c-1-.91-1.92-1.8-2.88-2.74-.36-.34-.7-.69-1.05-1-1.49-1.45-3-2.9-4.42-4.37-.55-.55-1.08-1.1-1.62-1.65q-2-2-3.86-4c-.57-.6-1.14-1.2-1.7-1.81q-1.92-2.06-3.8-4.16c-.5-.54-1-1.09-1.48-1.64-2.64-3-5.21-6-7.74-9.06-.54-.66-1.1-1.31-1.63-2l-.19-.24q-4.38-5.42-8.53-11l-.15-.19-.26-.36q-6.31-8.58-12.08-17.57c-.29-.44-.58-.88-.85-1.32-.14-.21-.27-.43-.4-.65-.85-1.33-1.68-2.68-2.5-4l-.55-.89c-.14-.22-.27-.46-.41-.69-.61-1-1.21-2-1.8-3-.12-.21-.25-.42-.38-.63l-.81-1.4c-.1-.19-.2-.37-.31-.55-.89-1.56-1.78-3.12-2.65-4.7l-.24-.41-.36-.68c-.88-1.6-1.74-3.21-2.6-4.83l-.21-.4-.24-.47c-.73-1.38-1.44-2.77-2.15-4.17Z"/><path class="cls-4" d="M281.15,164.8q41.1,8.61,80.33,20.95A784.14,784.14,0,0,1,492.2,240.22q8.87,4.68,17.59,9.59,9.78,5.5,19.38,11.3Q534,264,538.73,267t9.46,6q20.77,13.38,40.59,28.11,6.62,4.92,13.12,10,20.8,16.19,40.52,33.89,9.86,8.85,19.44,18.07,23.94,23.06,46.14,48.4,1-12.92,1-26.14c0-2.49,0-5-.1-7.44,0-.46,0-.92,0-1.38-.07-2.5-.17-5-.29-7.48,0-.59-.07-1.17-.1-1.75q-.16-3-.38-6c0-.56-.09-1.12-.13-1.68q-.27-3.37-.6-6.73c-.32-3.24-.7-6.46-1.11-9.67q-.46-3.57-1-7.12c-.46-3-1-5.95-1.51-8.91q-.52-2.91-1.11-5.79c-.21-1-.43-2.09-.65-3.13-.36-1.7-.72-3.4-1.11-5.08-.18-.82-.38-1.63-.57-2.44q-.6-2.52-1.23-5l-.6-2.33c-.32-1.25-.67-2.48-1-3.72q-.74-2.71-1.53-5.41c-.4-1.34-.79-2.69-1.2-4-.19-.61-.37-1.22-.57-1.83-.63-2-1.29-4-2-6-.29-.85-.58-1.69-.88-2.53-.53-1.54-1.06-3.07-1.61-4.59-.44-1.21-.9-2.41-1.35-3.61-.39-1-.78-2.08-1.19-3.12q-1.89-4.89-3.93-9.7c-.36-.83-.73-1.66-1.1-2.5q-1.31-3-2.67-6c-.67-1.46-1.34-2.91-2-4.35q-2.13-4.44-4.38-8.81c-.66-1.26-1.32-2.51-2-3.76s-1.39-2.6-2.1-3.89c-.56-1-1.13-2-1.7-3q-1.32-2.34-2.68-4.65c-.42-.72-.84-1.43-1.27-2.14-.68-1.15-1.37-2.29-2.06-3.43s-1.59-2.56-2.4-3.83c-.7-1.1-1.4-2.19-2.11-3.28q-1.26-1.95-2.54-3.86-2.73-4.06-5.57-8c-.14-.19-.28-.37-.41-.56q-2.25-3.12-4.56-6.18c-1.13-1.5-2.26-3-3.41-4.45-.56-.72-1.14-1.43-1.7-2.14s-1-1.27-1.54-1.9c-2.42-3-4.89-6-7.42-8.88-.34-.4-.7-.79-1-1.18q-3.75-4.28-7.66-8.43l-.15-.16c-.8-.85-1.61-1.7-2.42-2.54q-1.64-1.69-3.29-3.38l-1.25-1.26c-1.25-1.24-2.51-2.46-3.77-3.68q-4.21-4.07-8.56-8l-2.77-2.46q-1.9-1.67-3.82-3.3l-2.35-2q-2.52-2.1-5.09-4.16l-1.28-1-1.61-1.28q-2.21-1.72-4.44-3.4-4.56-3.45-9.25-6.75l-1.61-1.11q-6.06-4.2-12.32-8.13l-2.32-1.46c-1-.61-2-1.23-3-1.83-1.21-.73-2.43-1.45-3.65-2.16-.89-.53-1.79-1-2.69-1.56l-.19-.11c-2.39-1.36-4.81-2.7-7.24-4-1.24-.67-2.49-1.33-3.74-2l-3.05-1.56-1.27-.63c-2.51-1.26-5-2.49-7.6-3.69l-2.5-1.17q-4.44-2-8.93-3.94l-1.66-.68q-4.61-1.9-9.27-3.67L498.56,82c-1.23-.46-2.45-.91-3.68-1.35L493,80q-4.41-1.56-8.88-3c-.46-.15-.93-.31-1.4-.45q-5.1-1.62-10.27-3.06c-1.85-.52-3.7-1-5.56-1.51l-2.44-.62c-1.86-.46-3.72-.93-5.59-1.36l-2.18-.49c-.59-.14-1.2-.26-1.8-.39-3.25-.72-6.53-1.39-9.82-2l-1.44-.27c-3.57-.66-7.16-1.24-10.77-1.78l-3.62-.5c-2.37-.33-4.76-.62-7.15-.89-.94-.11-1.87-.23-2.81-.33l-2-.2c-2.05-.2-4.09-.38-6.14-.54l-1.27-.11q-3.22-.24-6.47-.41l-2.88-.14c-1.8-.09-3.6-.16-5.41-.21l-2.37-.07c-2.47,0-4.94-.09-7.42-.09-.74,0-1.47,0-2.21,0-2.14,0-4.28,0-6.42.09l-2.28.08-3.49.15c-3.13.13-6.24.28-9.34.51-1.52.11-3,.25-4.55.39l-1.65.14-2.07.18q-3.31.33-6.62.73l-1.33.16c-1.78.22-3.54.46-5.31.71s-3.27.48-4.91.73c-1.3.21-2.61.4-3.9.62s-2.66.48-4,.72l-1.88.34-3.92.76-2.09.43c-2.72.57-5.44,1.17-8.14,1.81l-2.13.49c-.84.2-1.68.42-2.52.63-1.38.34-2.77.7-4.15,1.07-3.09.82-6.18,1.67-9.23,2.58-2.29.68-4.56,1.38-6.83,2.11l-2.23.75c-1,.32-2,.66-3,1-1.42.49-2.84,1-4.25,1.49l-.4.14q-5.09,1.82-10.11,3.8l-.59.23-3.41,1.4c-.84.34-1.67.68-2.49,1-1.28.54-2.56,1.09-3.83,1.65l-1.66.73q-6.79,3-13.44,6.34l-1.1.55q-2.25,1.14-4.47,2.3l-.67.36q-7.2,3.8-14.19,8l-.91.54q-8,4.76-15.6,9.94l-1,.66q-8,5.49-15.71,11.43c-.89.68-1.75,1.38-2.62,2.07q-5.67,4.48-11.13,9.21l-.06.06c-2.93,2.54-5.84,5.13-8.68,7.77,13.35,1,27.21,2.35,41.5,4.09C230.18,155.38,255.22,159.38,281.15,164.8Z"/><path class="cls-5" d="M619.29,424.35q-14.44-14.42-29.57-27.85-7.56-6.72-15.31-13.18c.22,2,.42,4,.58,6q.75,9,.75,18.18A220.71,220.71,0,0,1,562.14,484q-1.1,3-2.28,5.93-2.37,5.88-5.05,11.6t-5.69,11.25a223.21,223.21,0,0,1-60.46,70.79c16.78,2.91,33.09,5.2,48.8,7,12.57,1.41,24.76,2.48,36.5,3.28q8.82.6,17.27,1t16.54.62q12.12.33,23.34.32,4.41-5.15,8.61-10.47,8.4-10.66,15.9-22t14-23.34q6.54-12,12.08-24.55,2.78-6.28,5.28-12.7-12.66-16.9-26-32.8Q640.93,446,619.29,424.35Z"/><path class="cls-6" d="M98.69,535.72c.86,1.62,1.72,3.23,2.6,4.83l.6,1.09c.87,1.58,1.76,3.14,2.65,4.7.5.86,1,1.72,1.5,2.58s1.19,2,1.8,3l1,1.58c.82,1.35,1.65,2.7,2.5,4,.41.66.83,1.32,1.25,2q5.76,9,12.08,17.57l.41.55q4.15,5.61,8.53,11c.6.75,1.21,1.48,1.82,2.21,2.53,3.07,5.1,6.09,7.74,9.06.49.55,1,1.1,1.48,1.64q1.88,2.1,3.8,4.16c.56.61,1.13,1.21,1.7,1.81q1.9,2,3.86,4c.54.55,1.07,1.1,1.62,1.65,1.45,1.47,2.93,2.92,4.42,4.37,1.94,1.88,3.91,3.76,5.9,5.6l.08.07c1,1,2.11,1.91,3.17,2.87l2.23,2c.77.69,1.56,1.36,2.35,2s1.81,1.58,2.73,2.36c1.38,1.17,2.78,2.32,4.18,3.47l1.37,1.11,3.73,3,1.28,1,1.16.89,1.74,1.33c1,.73,1.92,1.46,2.89,2.18q6.57,4.88,13.41,9.42,4.53,3,9.18,5.9l1,.6q13.59,8.34,28,15.37l2.29,1.09c1.34.63,2.68,1.27,4,1.89,1,.46,2,.9,3,1.35l3.48,1.54q3.09,1.33,6.23,2.61l3.25,1.3,1.47.59c1.27.5,2.56,1,3.84,1.45.82.31,1.64.63,2.46.93,1.53.56,3.07,1.09,4.61,1.63.51.18,1,.37,1.55.54,1.25.43,2.51.85,3.77,1.26l2.14.7q11,3.54,22.4,6.31l2.72.64c2.12.49,4.24,1,6.38,1.42.81.17,1.62.35,2.44.51q11,2.25,22.3,3.75c1.45.19,2.91.36,4.36.53q7,.83,14,1.34l1.78.14,4.56.27c1,.05,2,.12,3,.16,1.39.07,2.78.1,4.18.15,1.07,0,2.13.08,3.2.1q3.69.09,7.4.09a322.81,322.81,0,0,0,95.06-14.24q10-3.09,19.77-6.8c4.66-1.77,9.25-3.69,13.81-5.67a321.84,321.84,0,0,0,32.88-16.55h0q-11.62-1.08-23.71-2.53t-24.55-3.3q-25-3.71-51.32-9.16-9.94-2.09-19.78-4.4c-1.26-.29-2.51-.6-3.77-.9q-7.8-1.86-15.53-3.87c-1.75-.45-3.51-.91-5.26-1.38q-8.22-2.19-16.37-4.52c-1.54-.44-3.07-.9-4.6-1.35-5.81-1.72-11.61-3.46-17.36-5.29q-12.37-3.95-24.55-8.25t-24.14-9q-6-2.34-11.92-4.77Q292.1,602.2,280.45,597,263,589.14,246,580.48t-33.43-18.13q-16.45-9.45-32.38-19.72l-1.08-.71c-1.05-.68-2.09-1.35-3.13-2-2.85-1.86-5.66-3.78-8.48-5.68q-6.52-4.4-13-8.94-25.77-18.15-50-38.49Q86.39,471.51,69.13,455q.8,3.59,1.66,7.14c.17.69.35,1.37.52,2.05q.61,2.44,1.26,4.89c.36,1.34.74,2.69,1.12,4,.23.81.45,1.62.68,2.43.15.51.32,1,.47,1.55q1.83,6.18,3.9,12.27l.42,1.22c.66,1.91,1.33,3.81,2,5.71.51,1.39,1,2.77,1.55,4.15l.35.95c.58,1.5,1.18,3,1.78,4.48.35.87.7,1.74,1.06,2.61.2.49.42,1,.62,1.48q3.93,9.36,8.4,18.41l1.14,2.28c.71,1.4,1.42,2.79,2.15,4.17Z"/><path class="cls-5" d="M105.75,387.89q6.45,6.53,13,12.85t13.31,12.44c-.05-1.89-.07-3.79-.07-5.71a220.51,220.51,0,0,1,16.45-83.83q2.44-6,5.22-11.76,4.17-8.7,9-16.95A223.57,223.57,0,0,1,222,229.18c-21.25-3.21-41.64-5.43-60.9-6.89s-37.37-2.17-54-2.37a323.69,323.69,0,0,0-27.31,58.33q-2.69,7.68-5,15.52a320.34,320.34,0,0,0-7.69,32q-1.52,8.14-2.63,16.43,4,4.79,8,9.5Q88.57,370.49,105.75,387.89Z"/></svg>