<svg id="Layer_1" data-name="Layer 1" xmlns="http://www.w3.org/2000/svg" viewBox="0 0 786.92 707.87"><defs><style>.cls-1{fill:#232323;}.cls-2{fill:#bba600;}.cls-3{fill:#6e3fa3;}</style></defs><path class="cls-1" d="M785.3,195.18A215,215,0,0,0,727.65,70.56a225.54,225.54,0,0,0-87.84-57.34q-10.09-3.66-20.51-6.3c-55.15-14.09-116-7.34-169.7,26.49-5.1,3.22-10.05,6.69-14.9,10.39C420.42,54.55,406.79,67,391.37,79.22c-4.82-5.29-10.21-12.06-16.47-17.9A250,250,0,0,0,338.49,33C296.44,6.2,248.93-4.8,196.66,2c-9.4,1.23-18.54,2.88-27.35,4.93A241.15,241.15,0,0,0,143.9,14.3C83,35.7,38.8,79.91,14.8,146.09c-30.5,84-13.37,161.25,46.88,227.31q2.18,2.4,4.4,4.8c26.39,28.85,53.23,57.29,80.19,85.65,23.8,25.06,47.71,50,71.44,75.18L228,549.89q40.14,42.51,80.33,85,27.44,29.1,54.85,58.25c10.78,11.48,23.93,17.78,38.75,13.2,9.68-3,19.15-9.8,26.24-17.28q16.29-17.15,32.55-34.3,27.1-28.54,54.16-57.09,64.78-68.38,129.35-137,41.37-43.86,82.55-87.81C773.54,323,792.94,263.05,785.3,195.18ZM708,231.74C705.78,262,695.2,289,676,312c-1.85,2.27-3.82,4.48-5.88,6.67q-61.78,65.6-123.64,131.1-63.66,67.42-127.36,134.79l-21,22.21c-1.23,1.33-2.66,2.48-4.43,4.11-11.75-12.41-23.39-24.62-35-36.88q-15.25-16.19-30.53-32.33-40.14-42.54-80.31-85.06-40.8-43.2-81.63-86.43-23.94-25.38-47.89-50.72a141.11,141.11,0,0,1-29.64-47.34A142.87,142.87,0,0,1,121.13,120.8l.2-.19a142.52,142.52,0,0,1,199-2.76l.37.34c14.9,14.23,29.13,29.1,43.75,43.56,12.92,12.75,28.34,16.39,42.66,10.85a47.46,47.46,0,0,0,16.15-10.76C437.31,148.06,451,134,465,120.19a144,144,0,0,1,61.08-35.92,142.37,142.37,0,0,1,97.1,6.6c.91.39,1.85.81,2.76,1.23a143,143,0,0,1,82,139.64Z"/><path class="cls-2" d="M676,312c19.18-22.94,29.76-50,32-80.23a141.38,141.38,0,0,0-4.63-47.57Z"/><path class="cls-3" d="M626,92.1c-.91-.42-1.85-.84-2.76-1.23L546.5,449.74q61.86-65.5,123.64-131.1c2.06-2.19,4-4.4,5.88-6.67l27.33-127.8A142.42,142.42,0,0,0,626,92.1Z"/><path class="cls-2" d="M526.11,84.27l-107,500.26q63.71-67.39,127.36-134.79L623.21,90.87A142.37,142.37,0,0,0,526.11,84.27Z"/><path class="cls-3" d="M465,120.19c-14,13.79-27.72,27.87-41.73,41.65a47.46,47.46,0,0,1-16.15,10.76l-78.9,369q15.28,16.18,30.53,32.33c11.57,12.26,23.21,24.47,35,36.88,1.77-1.63,3.2-2.78,4.43-4.11l21-22.21,107-500.26A144,144,0,0,0,465,120.19Z"/><path class="cls-2" d="M364.49,161.75c-14.62-14.46-28.85-29.33-43.75-43.56l-.37-.34L247.94,456.58q40.14,42.54,80.31,85.06l78.9-369C392.83,178.14,377.41,174.5,364.49,161.75Z"/><path class="cls-3" d="M228.59,78.85l-62.28,291.3q40.84,43.2,81.63,86.43l72.43-338.73A141.81,141.81,0,0,0,228.59,78.85Z"/><path class="cls-2" d="M121.33,120.61l-.2.19L88.78,272.09a141.11,141.11,0,0,0,29.64,47.34q24,25.36,47.89,50.72l62.28-291.3A142.43,142.43,0,0,0,121.33,120.61Z"/><path class="cls-3" d="M88.78,272.09,121.13,120.8A142.87,142.87,0,0,0,88.78,272.09Z"/></svg>