<svg id="Layer_1" data-name="Layer 1" xmlns="http://www.w3.org/2000/svg" viewBox="0 0 770.58 770.58"><defs><style>.cls-1,.cls-4,.cls-5{fill:none;}.cls-2{fill:#00c65e;}.cls-3{fill:#6e3fa3;}.cls-4{stroke:#6e3fa3;}.cls-4,.cls-5{stroke-linecap:round;stroke-linejoin:round;stroke-width:0;}.cls-5{stroke:#00c65e;}.cls-6{fill:#232323;}.cls-7{fill:#bba600;}.cls-8{fill:#efe5ab;}</style></defs><path class="cls-1" d="M176,228c1.55-2,3.15-4,4.75-6-1.62,2-3.23,4-4.8,6l.05,0Z"/><path class="cls-1" d="M423.07,565.48l-4.23,1.89-4.38,2-19.6,8.74-.15.06L390.62,580,388,581.12l-1.25.56-.18.09-1.47.63-.42.35a10.67,10.67,0,0,1-2.48.27,24.1,24.1,0,0,1-6.62-1.07,47.83,47.83,0,0,1-4.93-1.75c-1.22-.52-2.53-1.12-3.93-1.82-3.29-1.64-7.06-3.48-11.06-5.44v.26c4,2,7.77,3.8,11.06,5.44,1.4.7,2.71,1.3,3.93,1.81a45.83,45.83,0,0,0,4.93,1.76,28.16,28.16,0,0,0,4.29.89c-.51-.07-1.05-.17-1.64-.3s-1.33-.31-2.06-.52a46.11,46.11,0,0,1-5-1.76,46.11,46.11,0,0,0,5,1.76c.73.21,1.42.38,2.06.52s1.13.23,1.65.3a17.45,17.45,0,0,0,2.32.17,9.63,9.63,0,0,0,2.48-.27l.42-.34,1.47-.64.18-.08.16-.07a4.88,4.88,0,0,1,.49-.22l.6-.27,2.64-1.18c.27-.12.53-.24.83-.36l1-.44,2.26-1,.15-.07,7-3.1,3.85-1.72c1.35-.61,2.77-1.22,4.24-1.88l4.11-1.84.42-.19,4.38-2,1-.44,3.24-1.45,14.29-6.37L461,548.81v-.25l-23.66,10.55Z"/><path class="cls-1" d="M570.41,408.19l9.08-4.46Z"/><polygon class="cls-1" points="538.38 463.77 539.1 463.45 540.08 463.01 539.1 463.45 538.38 463.77"/><path class="cls-1" d="M380.36,530.54a25.87,25.87,0,0,0,10.54,13.65c.44.29.91.56,1.37.83a26.74,26.74,0,0,0,6.1,2.47,26,26,0,0,0,6.53.84,25.13,25.13,0,0,0,5.39-.58c.88-.2,1.76-.44,2.63-.73a24.85,24.85,0,0,0,2.59-1l.19-.08,37.63-17,1.69-.77,6-2.7v-.21l-6,2.7-1.69.75-37.63,17-.19.09a27.28,27.28,0,0,1-2.59,1,25.79,25.79,0,0,1-8,1.31,25.54,25.54,0,0,1-6.53-.85,26.28,26.28,0,0,1-2.68-.89l.25.12-.25-.12-.43-.14a26.4,26.4,0,0,1-3-1.43c-.46-.27-.93-.54-1.37-.83a27.45,27.45,0,0,1-3-2.28,25.53,25.53,0,0,1-6.54-8.88,24.45,24.45,0,0,1-1-2.5,25.21,25.21,0,0,1-1.3-8.06v.21A25.27,25.27,0,0,0,380.36,530.54Z"/><path class="cls-1" d="M604.9,286.74l5.15,2.45.59.28c2.28,1.06,4.16,1.92,5.48,2.48.39.17.78.38,1.16.59l.58.34c.2.12.39.26.59.39s.55.4.82.62a6.4,6.4,0,0,1,.49.42l.3.25.21.19c.38.37.76.75,1.12,1.16v0a24.25,24.25,0,0,1,2.52,3.46l0,.07a40.42,40.42,0,0,1,3.34,7.13l.17.48c.19.56.38,1.12.56,1.7l.33,1c.25.84.47,1.71.69,2.57.15.56.3,1.11.43,1.68.19.78.35,1.58.52,2.37s.27,1.34.39,2,.27,1.52.39,2.28c.1.6.18,1.19.26,1.79s.18,1.27.25,1.9c.19,1.6.35,3.17.46,4.68.07,1,.13,2,.18,2.93,0,.23,0,.45,0,.68,0,.71,0,1.4,0,2.06v1.16h0v-1.16s0,0,0,0a.12.12,0,0,0,0-.12s0,0,0,0a.25.25,0,0,0,0-.17c0-.55,0-1.14,0-1.72,0-.23,0-.44,0-.68,0-.84-.09-1.72-.15-2.62l0-.3c-.11-1.52-.27-3.08-.46-4.69v-.06c0-.54-.13-1.11-.23-1.67a.88.88,0,0,0,0-.16c-.08-.6-.16-1.2-.26-1.8s-.17-1-.26-1.54c0-.25-.09-.49-.13-.74-.12-.67-.25-1.34-.39-2s-.22-1.12-.34-1.67c0-.24-.12-.46-.18-.7-.13-.56-.28-1.12-.43-1.68-.08-.29-.14-.6-.23-.9-.14-.56-.29-1.13-.46-1.67-.1-.34-.2-.69-.33-1h0c-.18-.57-.37-1.14-.56-1.7,0-.07-.05-.15-.08-.22l-.09-.25a40.09,40.09,0,0,0-3.34-7.13v0l0-.05a25.43,25.43,0,0,0-2.52-3.46h0c-.2-.22-.4-.45-.59-.64a3.86,3.86,0,0,0-.5-.49l0,0-.21-.19-.32-.29,0-.05c-.13-.12-.28-.22-.42-.33s-.54-.42-.82-.61c-.12-.08-.22-.17-.34-.24l-.25-.16-.58-.34a3.5,3.5,0,0,0-.42-.24c-.25-.12-.5-.25-.74-.35a5,5,0,0,1-.49-.22c-1.09-.47-2.47-1.08-4.14-1.87l-.85-.39-.59-.28c-.44-.2-.9-.42-1.37-.66-1.17-.54-2.43-1.14-3.78-1.79-4.14-2-9.08-4.39-14.74-7.17h0C595.81,282.34,600.76,284.75,604.9,286.74Z"/><path class="cls-1" d="M566.13,479.55l.31-.14,28.5-12.87.44-.2a24.93,24.93,0,0,0,2.5-1.34c.38-.22.75-.44,1.12-.68.7-.46,1.39-.95,2-1.47l.65-.55c.55-.48,1.07-1,1.58-1.49s.73-.77,1.08-1.17.84-1,1.23-1.51.58-.8.86-1.22c.38-.58.76-1.16,1.09-1.77.17-.29.33-.59.48-.89a25,25,0,0,0,1.14-2.53c0-.11.08-.23.13-.34a28.36,28.36,0,0,0,.83-2.76c0-.17.09-.35.13-.53a26.85,26.85,0,0,0,.53-3.25v0c.08-.8.13-1.63.13-2.45v-.59c0,.83,0,1.65-.13,2.45v.05a27.17,27.17,0,0,1-.53,3.25c0,.18-.09.35-.13.53a28.36,28.36,0,0,1-.83,2.76,3.42,3.42,0,0,0-.13.34,27.21,27.21,0,0,1-1.14,2.53c-.15.3-.3.6-.48.89-.33.6-.71,1.19-1.09,1.77-.28.41-.56.82-.86,1.22s-.8,1-1.23,1.51a14.69,14.69,0,0,1-1.08,1.16c-.51.52-1,1-1.58,1.49l-.51.45-.14.1a24.52,24.52,0,0,1-2,1.47c-.36.24-.74.47-1.12.69a27.15,27.15,0,0,1-2.5,1.34l-.44.19-28.5,12.87-.31.15-27.78,12.55-.05,0v.59l.05,0Z"/><path class="cls-1" d="M609.71,327.2a26,26,0,0,0-1.44-3.64c-.29-.58-.59-1.16-.92-1.72s-.68-1.11-1.05-1.65a24.78,24.78,0,0,0-1.54-2A26.29,26.29,0,0,0,598.9,313a26.1,26.1,0,0,0-3.52-1.91,25.51,25.51,0,0,0-3.76-1.34,26,26,0,0,0-17.68,1.39l-34.87,15.74-2.93,1.32L394.49,392.15A25.94,25.94,0,0,0,384,400.68a26.51,26.51,0,0,0-3.66,7.19,25.57,25.57,0,0,0-1,4c-.11.68-.19,1.37-.24,2.06s-.09,1.39-.09,2.1v.27q0-1.05.09-2.1c.05-.69.13-1.38.24-2.06a25.57,25.57,0,0,1,1-4A26.51,26.51,0,0,1,384,401a25.94,25.94,0,0,1,10.45-8.53l141.6-63.91,0,0,2.93-1.32,34.87-15.74A26,26,0,0,1,591.62,310a26.71,26.71,0,0,1,3.76,1.34,26.1,26.1,0,0,1,3.52,1.91,26.07,26.07,0,0,1,5.86,5.15,23.05,23.05,0,0,1,1.54,2q.56.81,1.05,1.65c.33.56.63,1.14.92,1.72a26.27,26.27,0,0,1,2.63,11.46V335A26.13,26.13,0,0,0,609.71,327.2Z"/><path class="cls-1" d="M310.42,700.51q-5.35-1.28-10.64-2.71C303.3,698.75,306.85,699.68,310.42,700.51Z"/><polygon class="cls-1" points="538.3 586.25 538.3 586.24 538.3 587.29 538.3 586.25"/><path class="cls-1" d="M89.86,519.8c-.11-.25-.21-.5-.33-.75C89.65,519.3,89.75,519.55,89.86,519.8Z"/><path class="cls-1" d="M182.6,514.66l-.27-.13a210.49,210.49,0,0,0,13.94,18A212.91,212.91,0,0,1,182.6,514.66Z"/><path class="cls-1" d="M461,578.42v15.77c-52.73,41.36-124.59,56.87-191.68,30.3a261.57,261.57,0,0,1-73.88-46.58c-.17-.15-.35-.32-.52-.49a224.57,224.57,0,0,1-58.8-85.11,46.34,46.34,0,0,1-12.85-10.56,50.15,50.15,0,0,1-8.15-13.35,49.7,49.7,0,0,0-3-6.62v.35a57.68,57.68,0,0,0,2.38,6.63,49.76,49.76,0,0,0,8.19,13.34,46.56,46.56,0,0,0,13.62,11,224.57,224.57,0,0,0,59.44,85.82,5.94,5.94,0,0,0,.52.49A263.23,263.23,0,0,0,270.56,626C338,652.54,410.32,637,463.37,595.67V577.34Z"/><path class="cls-1" d="M121.77,276.79c8.17-16.12,20.31-27.66,29.29-34.64-9.07,6.94-21.56,18.6-29.92,35a80.41,80.41,0,0,0-9,36.84c.68-5.9,1.29-11.48,2.39-16.71A81.51,81.51,0,0,1,121.77,276.79Z"/><path class="cls-1" d="M550.8,297.29l-37.26,17-.07,0L392.18,369.7A88.89,88.89,0,0,0,371.74,387a73.14,73.14,0,0,0-8.4,11.83,63.59,63.59,0,0,0-3.41,7,56.27,56.27,0,0,0-3.67,13.2,55.18,55.18,0,0,0-.62,8.15h0a55.18,55.18,0,0,1,.62-8.15,56.27,56.27,0,0,1,3.67-13.2,62.88,62.88,0,0,1,3.41-7,73,73,0,0,1,8.4-11.82,88.89,88.89,0,0,1,20.44-17.33l121.36-55.4,37.26-17,1.08-.49,38-17.37.24.12h0c-.08-.05-.16-.08-.24-.12l-22.87,10.44-15.17,6.91Z"/><polygon class="cls-1" points="314.38 377.1 312.81 376.39 315.06 377.42 314.38 377.1"/><polygon class="cls-1" points="191 320.47 177.14 314.14 191.09 320.53 191 320.47"/><path class="cls-1" d="M181.06,485.74l1.22.6,10.35,5.06Z"/><path class="cls-1" d="M405.06,475l-.24.1v.81l.24-.1.23-.09.25-.11,1.95-.79,3.74-1.54,10.3-4.22.14-.07,14.88-6.05,10.74-4.36,3.17-1.29a7.39,7.39,0,0,1,1.73-.46l.3,0a6.83,6.83,0,0,1,1.69,0h.13a7.65,7.65,0,0,1,1.57.38l.2.07a8,8,0,0,1,1.4.72l0,0c.17.12.32.26.49.39a7.49,7.49,0,0,1,.91.78l.24.29a7.29,7.29,0,0,1,.86,1.2l.08.12a7.18,7.18,0,0,1,.6,1.52c0,.12.07.23.1.34a8.24,8.24,0,0,1,.22,1.82v-1a6.7,6.7,0,0,0-.09-1.18c0-.15,0-.3-.07-.44a1.8,1.8,0,0,1-.06-.22l-.1-.34a7.66,7.66,0,0,0-.6-1.55l-.08-.12a7.27,7.27,0,0,0-.86-1.22l-.24-.29h0c-.12-.12-.22-.24-.34-.34s-.36-.29-.54-.43a7.34,7.34,0,0,0-1-.54,1.39,1.39,0,0,0,.19.06.07.07,0,0,0,.07,0,2.93,2.93,0,0,1,.56.28,2.92,2.92,0,0,0-.29-.23l0,0a4.43,4.43,0,0,0-.56-.35,3.14,3.14,0,0,0-.58-.29s0,0-.07,0a1.39,1.39,0,0,1-.19-.06l-.2-.06c-.32-.12-.64-.23-1-.32s-.4-.05-.6-.07l-.13,0a8,8,0,0,0-1.69,0l-.3.05a7.77,7.77,0,0,0-1.73.46l-3.17,1.31-10.74,4.42L421.67,468l-.14.07-10.3,4.28-3.74,1.56-1.95.81-.25.1-.23.1Zm50.74-18.61c.33.09.66.2,1,.32a7.33,7.33,0,0,0-1.6-.39C455.39,456.29,455.6,456.3,455.8,456.34Zm-.74-.09a8.25,8.25,0,0,0-1.72,0A8.25,8.25,0,0,1,455.06,456.25Zm-2,.06a8.74,8.74,0,0,0-1.75.47A8.56,8.56,0,0,1,453,456.31Zm-5,1.78-10.89,4.42ZM411.5,473l-3.79,1.56C408.73,474.13,410,473.61,411.5,473Zm-5.76,2.36-.26.11Z"/><path class="cls-1" d="M168.53,479.67l5.57,2.69-6.35-3.06Z"/><polygon class="cls-1" points="169.64 310.7 160.53 306.51 160.49 306.5 160.53 306.52 169.64 310.7"/><path class="cls-1" d="M509.87,597.43a10.4,10.4,0,0,1-3,5.1,10.48,10.48,0,0,1-5.29,2.7,11.06,11.06,0,0,1-4.28-.08,9.39,9.39,0,0,1-1.18-.34,10.7,10.7,0,0,1-7-10.27v1.65a10.7,10.7,0,0,0,7,10.28,7.93,7.93,0,0,0,1.18.33,11.08,11.08,0,0,0,2.19.26,10.55,10.55,0,0,0,7.38-2.87,10.92,10.92,0,0,0,1.31-1.49,10.42,10.42,0,0,0,1.67-3.62,9.87,9.87,0,0,0,.25-1.25,11.07,11.07,0,0,0,.08-1.3v-1.66a11.38,11.38,0,0,1-.08,1.31A10.63,10.63,0,0,1,509.87,597.43Z"/><path class="cls-1" d="M405,475l-.22.1.22-.1Z"/><path class="cls-1" d="M355.57,367.23l-11.69-5.37-20.7-9.49-28.83-13.23-18.57-8.52-2.46-1.13-47-21.57-18.53-8.52h0l-7.58-3.47-.19-.1-7.55-3.45L171,282.55l-.08,0L158.81,277l-.63-.29-4.54-2.08c-.06.08-.13.15-.19.22l4.73,2.17.63.29,12.1,5.55.08,0,21.42,9.83,7.55,3.46.16.8,0,0h1.14l7,3.23.43.19h0l18.27,8.4L273.39,330l.82.39,1.6.72,18.29,8.4,28.24,12.95.18.08,20.39,9.36,11.53,5.29ZM207.29,299.52l-7.14-3.28h0l7.58,3.47Zm66.87,30.67-.84-.39,2.46,1.13ZM323,352.59l-28.65-13.14,28.83,13.23Z"/><path class="cls-1" d="M685.35,351.49a268.77,268.77,0,0,0-15.91-29.6,189.78,189.78,0,0,0-18-24.44l0,.08a190.1,190.1,0,0,1,17.9,24.36,268.77,268.77,0,0,1,15.91,29.6c8.15,17.43,14.77,35.45,20.73,52.56.42,1.16.83,2.33,1.25,3.49v-.09c-.4-1.13-.8-2.27-1.21-3.4C700.12,386.94,693.49,368.92,685.35,351.49Z"/><path class="cls-1" d="M527.64,279.92l-43.83,20L381.64,346.6l-.76.37c-.31.17-1.72.95-3.88,2.34-1.72,1.1-3.92,2.6-6.42,4.48s-5.31,4.15-8.25,6.81c-2.2,2-4.47,4.2-6.73,6.63h1.16c2.23-2.39,4.45-4.56,6.61-6.51,2.88-2.61,5.64-4.84,8.09-6.68s4.62-3.32,6.32-4.41c2.11-1.35,3.49-2.12,3.8-2.29l.75-.37,99.24-45.31h1.15l1.09-.5h0l-1.05.5h1.08l42.52-20.83,1.28-.6,1.86-.85L561,265l.25-.11-.33-.16L529.5,279.07Zm-165.31,81c2.94-2.66,5.74-4.93,8.25-6.81C368.07,356,365.27,358.25,362.33,360.91Z"/><path class="cls-1" d="M622,165.74c-1-1.08-2-2.13-3-3.2a348.78,348.78,0,0,0-116.45-48.29A345.65,345.65,0,0,1,622,165.74Z"/><path class="cls-1" d="M69,428.85a362.83,362.83,0,0,1,4.88-45.77C104.79,201.53,270,52.81,469.59,83,270.09,51.26,104.66,200.45,73.78,382.73a362.8,362.8,0,0,0-4.85,45.77q-.68,14.76-.05,29.71h0l0,.12Q68.28,443.53,69,428.85Z"/><path class="cls-1" d="M244.66,677.16c-5.92-2.83-11.74-5.86-17.44-9a327.23,327.23,0,0,1-40.73-26.93q-6.84-5.33-13.37-11a321.12,321.12,0,0,1-31.55-31.16q-5.35-6-10.38-12.31a327,327,0,0,1-24.14-34.59q-4-6.69-7.78-13.54c-2.58-4.77-5-9.63-7.35-14.54,2.28,4.79,4.64,9.53,7.14,14.18s5,9.09,7.73,13.54a326.28,326.28,0,0,0,24,34.59q5,6.29,10.32,12.31a320.38,320.38,0,0,0,31.36,31.17q6.51,5.65,13.3,11a324.71,324.71,0,0,0,40.5,26.94c5.66,3.17,11.45,6.2,17.33,9a319.26,319.26,0,0,0,54.28,20.51c.45.13.91.23,1.36.35A322.59,322.59,0,0,1,244.66,677.16Z"/><path class="cls-1" d="M566.9,529.53c-9.13,4.11-28.9,13.33-28.9,13.33h1.81c9.75-4.33,19.23-8.57,28.15-12.56.08-.45.17-.89.25-1.33C567.79,529.16,567.35,529.34,566.9,529.53Z"/><path class="cls-1" d="M575.87,375.13c-8.45,4.11-20.73,10.12-31.23,15.42-4.28,2.16-8.26,4.21-11.55,5.95l-2.56,1.38-.19.1-1.14.63-1.46.81a33.68,33.68,0,0,0-4.67,3.21,33.12,33.12,0,0,0-3.8,3.67c-.71.81-1.37,1.63-2,2.48s-1.18,1.71-1.7,2.59a37.25,37.25,0,0,0-3.58,8.1,43.22,43.22,0,0,0-1.65,7.92,40.62,40.62,0,0,0-.24,5.9h0a41,41,0,0,1,.24-5.61,43.22,43.22,0,0,1,1.65-7.92,37.25,37.25,0,0,1,3.58-8.1c.52-.88,1.09-1.74,1.7-2.59s1.28-1.68,2-2.48a34.05,34.05,0,0,1,3.8-3.68,34.53,34.53,0,0,1,4.67-3.2l1.46-.82,1.14-.62.19-.11c.51-.26,1-.53,1.57-.84l1-.53c3.29-1.74,7.27-3.79,11.55-5.95,8.31-4.19,17.72-8.82,25.48-12.61l1.51-.73c1.51-.76,2.93-1.44,4.24-2.07a1.86,1.86,0,0,1,.34-.18l2.11-1,4.48-2.17v-.3l-4.48,2.17ZM530,398.3l1.14-.63Zm2.92-1.59-1.58.85,2.58-1.39Zm44.54-22.28-.35.17c-1.32.64-2.75,1.33-4.28,2.1l-1.53.74c-7.83,3.82-17.33,8.5-25.71,12.73,10.6-5.36,23-11.42,31.52-15.57l2.47-1.2Z"/><path class="cls-2" d="M590,629.26c24.17-37.25,38.86-79.51,42.5-122.21.4-4.34.68-8.53.84-12.49l.09-2.1,1.61-1.33c.35-.28.69-.58,1-.89l.14-.13.31-.26a51.68,51.68,0,0,0,14-22.18,50.36,50.36,0,0,0,2.59-15V383l9.21-1.19c1.79,6.78,3.27,13.14,4.52,19.43,1.91,9.43,3.44,19.09,4.57,28.81l1.18-.4.77,5.59a306.18,306.18,0,0,1-5.73,115.72l-.16.68-1,1.67c-.32.55-.64,1.1-1,1.65-2.09,3.43-4.18,6.75-6.21,9.86a332.86,332.86,0,0,1-42.16,52c-5.66,5.71-11.73,11.37-18,16.81-.42.37-.9.78-1.39,1.19l-.71.6Z"/><path class="cls-2" d="M668.67,435.86l-1.36.41a340.35,340.35,0,0,0-5.12-34.14c-1.28-6.43-2.78-12.8-4.46-19.16v69.55a55.11,55.11,0,0,1-2.81,16.6,56.81,56.81,0,0,1-15.34,24.25l-.35.29c-.39.37-.81.74-1.23,1.09q-.25,6.35-.86,12.7c-3.83,45-19.21,87.34-43.23,124.36.7-.6,1.4-1.17,2.09-1.78q9.19-7.95,17.77-16.57a327.84,327.84,0,0,0,41.56-51.23q3.13-4.8,6.13-9.73c.54-.88,1-1.79,1.56-2.68a301.25,301.25,0,0,0,5.65-114Z"/><path class="cls-3" d="M577.14,374.6l.35-.17,2.12-1-2.47,1.2Z"/><polygon class="cls-3" points="274.16 330.19 275.78 330.93 273.32 329.8 274.16 330.19"/><path class="cls-3" d="M457.18,456.78a1.39,1.39,0,0,1-.19-.06,7.34,7.34,0,0,1,1,.54h0l-.2-.16a2.93,2.93,0,0,0-.56-.28A.07.07,0,0,1,457.18,456.78Z"/><path class="cls-3" d="M685.31,351.49a268.77,268.77,0,0,0-15.91-29.6,190.1,190.1,0,0,0-17.9-24.36c.19.49.37,1,.54,1.49s.37,1,.51,1.55a116.72,116.72,0,0,1,5.22,32.67c.08,2.59,0,4.51,0,5.49V383c1.68,6.36,3.18,12.73,4.46,19.16a340.35,340.35,0,0,1,5.12,34.14l1.36-.41a301.25,301.25,0,0,1-5.65,114c1.33-2.25,2.67-4.5,4-6.77q6.13-11,11.45-22.48a320.72,320.72,0,0,0,19.5-54.75q2.43-9.45,4.28-19.11,2.22-11.4,3.6-23.09c.56-4.58,1-9.21,1.35-13.86h0c0-.34.05-.71.08-1.08s0-.76.06-1.14c-.42-1.16-.83-2.33-1.25-3.49C700.08,386.94,693.46,368.92,685.31,351.49Z"/><path class="cls-2" d="M536.2,170.17a297.71,297.71,0,0,0-136.58-15.64L410.2,160c13.25,6.75,29.42,15,46.95,23.93,5.74,2.9,11.62,5.91,17.58,9,15.44,7.83,31.46,15.95,47.07,23.83,6,3,11.89,6,17.7,8.94,17.26,8.71,33.51,16.89,47.27,23.76,1.4.69,2.76,1.35,4.09,2l13.78,6.82c6.36,3.12,11.65,5.71,15.64,7.6,2.73,1.28,4.85,2.24,6.28,2.86A42.14,42.14,0,0,1,645.34,285a66.84,66.84,0,0,1,6.13,12.44h0a189.78,189.78,0,0,1,18,24.44,268.77,268.77,0,0,1,15.91,29.6c8.14,17.43,14.77,35.45,20.73,52.56.41,1.13.81,2.27,1.21,3.4.21-3,.39-6,.5-9.06.17-4.36.27-8.72.27-13.1,0-1.38,0-2.76,0-4.14,0-4-.17-8-.4-12a320.21,320.21,0,0,0-3.17-32.05c-.79-5.32-1.73-10.61-2.78-15.83Q700.46,315.09,699,309c-.21-.88-.44-1.75-.66-2.62C660.83,245.63,605.08,196.33,536.2,170.17Z"/><polygon class="cls-2" points="200.15 296.24 207.29 299.52 207.73 299.71 200.16 296.24 200.15 296.24"/><rect class="cls-2" x="590.16" y="279.56" width="0.01" transform="translate(-62.82 272.21) rotate(-24.7)"/><polygon class="cls-2" points="531.48 278.49 560.98 265.01 529.5 279.38 531.48 278.49"/><path class="cls-3" d="M182.28,486.34l13.85,6.78-3.5-1.72Z"/><path class="cls-3" d="M331.19,602.16c-52.13,0-101.31-23.65-138.46-66.57a221.2,221.2,0,0,1-14-18.28l6-6.81,2.42,1.2c14.38,7.11,30.88,15.29,47.61,23.64l17.74,8.86c15.13,7.56,29.85,14.95,42.78,21.45l4.13,2.07-.38.79c2.85,1.35,7,3.36,11.9,5.71l6,2.86,5.06,2.46c3.55,1.72,7.23,3.5,10.89,5.29,5.3,2.56,10.59,5.14,15.49,7.55l14.47,7.12-16,1.74c-3.88.42-7.4.7-10.77.85-1.67,0-3.24.07-4.82.07Z"/><path class="cls-3" d="M335.81,597.41c3.48-.16,7-.45,10.47-.83-4.89-2.4-10.17-5-15.47-7.54s-10.91-5.3-15.93-7.73c-7.58-3.65-14.16-6.82-18.12-8.69l-4-1.93.42-.86c-12.93-6.5-27.65-13.88-42.76-21.44l-17.76-8.86C216,531.18,199.46,523,185.06,515.89c-.84-.42-1.65-.81-2.46-1.23a212.91,212.91,0,0,0,13.67,17.86C231.09,572.75,280.58,599,335.81,597.41Z"/><path class="cls-3" d="M520.87,673.8A281.79,281.79,0,0,0,542.56,652c2.5-2.85,4.9-5.72,7.11-8.5,2.57-3.15,4.9-6.15,7.16-9.22,1.15-1.52,2.22-3,3.26-4.51.95-1.35,1.88-2.69,2.78-4,0,0,.72-1.09.9-1.34.55-.81,1.12-1.67,1.64-2.53l.12-.2c.66-1,1.3-2,1.94-3,.32-.49.53-.82.73-1.17l.13-.22a245.7,245.7,0,0,0,16.42-30.87l.84-1.89,2-.65a22.45,22.45,0,0,0,13.91-13.65A22.12,22.12,0,0,0,602.53,560a18.65,18.65,0,0,0-.88-3.89,21,21,0,0,0-2.69-5.53l-1.18-1.72.49-2c1.56-6.37,2.83-12.74,3.79-18.93,1-5.88,1.79-11.82,2.33-17.73l.24-2.72,2.49-1.12c6.67-3,11.74-5.32,14.75-6.74A57.21,57.21,0,0,0,635,491.2l8.17-7-.44,10.78c-.16,4.12-.46,8.47-.88,12.94-3.75,44.19-19,87.94-44,126.47l-.37.57-1.17,1c-.52.45-1,.89-1.57,1.32-7.71,6.47-16,12.77-24.53,18.68A331.72,331.72,0,0,1,526,681.5Z"/><path class="cls-3" d="M638,494.75a61.45,61.45,0,0,1-14.13,9.06c-3,1.42-8.12,3.74-14.82,6.77-.54,6-1.33,12-2.36,18-1,6.52-2.32,13-3.87,19.32a25.75,25.75,0,0,1,3.28,6.7,24.8,24.8,0,0,1,1.08,4.77,26.83,26.83,0,0,1-18.14,29,249.54,249.54,0,0,1-16.75,31.46c-.24.44-.51.86-.78,1.28-.69,1.08-1.38,2.17-2.1,3.22-.56.94-1.18,1.88-1.82,2.81-.29.42-.56.86-.86,1.28-.91,1.33-1.85,2.68-2.78,4-1.08,1.58-2.19,3.11-3.35,4.63-2.34,3.18-4.75,6.28-7.26,9.36-2.34,2.95-4.78,5.86-7.29,8.71a285.83,285.83,0,0,1-22,22.12,326.72,326.72,0,0,0,43.53-25.19q12.56-8.69,24.25-18.47c.72-.58,1.41-1.21,2.12-1.81,24-37,39.4-79.38,43.23-124.36Q637.74,501.09,638,494.75Z"/><path class="cls-3" d="M405.06,475h0l-.22.1.24-.1Z"/><path class="cls-4" d="M376.15,582.28c.73.21,1.42.38,2.06.52"/><path class="cls-3" d="M379.85,583.1h0c-.52-.07-1.06-.17-1.65-.3C378.8,582.93,379.34,583,379.85,583.1Z"/><path class="cls-4" d="M395.94,546.5l-.25-.12"/><path class="cls-4" d="M371.19,580.52a46.11,46.11,0,0,0,5,1.76"/><polygon class="cls-3" points="170.98 282.87 192.41 292.69 170.99 282.86 170.98 282.87"/><path class="cls-3" d="M403.26,128.31q-9.35.6-18.59,1.83c-.27.05-.56.07-.83.12-56.53,7.73-109,33.33-150.23,70.58l.76-.37,104.71-49.33,3.94-1.85a54.26,54.26,0,0,1,48.35,1c.44.25.89.47,1.3.66l2.93,1.53c.47.22.91.47,1.41.71.83.42,1.72.89,2.61,1.33A297.71,297.71,0,0,1,536.2,170.17c68.88,26.16,124.63,75.46,162.12,136.25-.17-.67-.32-1.33-.5-2-2.07-8.08-4.46-16-7.11-23.81q-2.55-7.39-5.42-14.6a316.05,316.05,0,0,0-14.16-30.75h0l-.81-1.58-.31-.57C601.63,162.25,505.11,120.93,403.26,128.31Z"/><path class="cls-4" d="M455.06,456.25a8.25,8.25,0,0,0-1.72,0"/><path class="cls-4" d="M448.07,458.09l-10.89,4.42"/><polygon class="cls-3" points="323 352.6 323.18 352.68 294.35 339.45 323 352.6"/><path class="cls-4" d="M405.74,475.36l-.26.11"/><path class="cls-3" d="M455.8,456.34c-.2,0-.41,0-.61-.07a7.33,7.33,0,0,1,1.6.39C456.46,456.54,456.13,456.43,455.8,456.34Z"/><path class="cls-3" d="M451.29,456.78a8.74,8.74,0,0,1,1.75-.47A8.56,8.56,0,0,0,451.29,456.78Z"/><path class="cls-3" d="M407.71,474.56,411.5,473C410,473.61,408.73,474.13,407.71,474.56Z"/><path class="cls-3" d="M327.43,770.08q14.44.42,29-.59l-.42,0C346.49,770.08,337,770.28,327.43,770.08Z"/><polygon class="cls-3" points="200.13 296.95 200.13 296.97 200.15 296.97 200.16 296.97 200.13 296.95"/><path class="cls-2" d="M598.59,550.05a22.07,22.07,0,0,0-15.17-9.18,23.6,23.6,0,0,0-2.89-.18,21.85,21.85,0,0,0-10.11,2.46l-8.93,4.61,2.36-10.47-2,.91,1.77-10,.41-2.47,2.29-1c16-7.17,30.09-13.52,40.44-18.19l7.86-5.21-.87,9.71c-.56,6.16-1.37,12.35-2.42,18.39-1,6.37-2.31,13-3.93,19.64l-3.92,16.07Z"/><path class="cls-2" d="M584,536.23a26.72,26.72,0,0,1,18.66,11.5.31.31,0,0,1,.15.19c1.55-6.35,2.86-12.8,3.87-19.32,1-6,1.82-12,2.36-18l-.24.12c-10.37,4.68-24.5,11.05-40.6,18.27-.08.44-.17.88-.25,1.33l.94-.42,1.05.83c-.49,2.76-1.06,5.52-1.68,8.28A26.65,26.65,0,0,1,584,536.23Z"/><path class="cls-2" d="M338,642.32a190.55,190.55,0,0,1-70.39-13.47,266.27,266.27,0,0,1-75.3-47.46c-.17-.15-.43-.4-.69-.66A228.28,228.28,0,0,1,131.78,494L127,481.81l11.41,6.42.8.48.55.22.4.29.24.13c.79.42,1.73.85,2.69,1.27,4.44,1.91,13.45,6.17,26,12.3,4.38,2.11,9.12,4.43,14.15,6.9l.92.44,1.2.53.75,1.08a207.68,207.68,0,0,0,13.63,17.59c35.35,40.84,82,63.33,131.38,63.33,1.49,0,3,0,4.49-.06,3.09-.14,6.42-.4,10.1-.8l1.35-.15,3.42,1.68.13.07a4.67,4.67,0,0,1,1.08.85H353l7.73,4a5.81,5.81,0,0,1,.56.28c2.09,1.07,4.25,2.05,6.45,2.92a47.71,47.71,0,0,0,17.57,3.79c6.74,0,11-2,12.88-3.17l.24-.15.26-.12c3.35-1.55,14.09-6.48,29.19-13.41,9.05-4.14,19.7-9,31.23-14.34l6.64-3.06v25.36l-1.79,1.41c-36.55,28.66-81.26,44.45-125.9,44.45Z"/><path class="cls-2" d="M194.94,577.42c.17.17.35.34.52.49a261.57,261.57,0,0,0,73.88,46.58c67.09,26.57,139,11.06,191.68-30.3V578.42c-11.52,5.3-22.18,10.2-31.23,14.34-15.09,6.93-25.82,11.85-29.17,13.4-2.67,1.65-7.75,3.88-15.35,3.88A51.7,51.7,0,0,1,366,605.91c-2.21-.87-4.57-1.92-7-3.17a.67.67,0,0,0-.21-.1l-6.95-3.58h-3a6.1,6.1,0,0,0-.49-1.46l-2.08-1c-3.49.38-7,.67-10.47.83-55.23,1.54-104.72-24.66-139.54-64.89a210.49,210.49,0,0,1-13.94-18q-.56-.24-1.08-.51c-5-2.46-9.75-4.77-14.14-6.89-12.13-5.91-21.39-10.29-25.85-12.21-1.08-.47-2.14-1-3.15-1.5-.17-.1-.34-.18-.51-.3a7,7,0,0,1-.77-.39c-.24-.13-.45-.29-.69-.42A224.57,224.57,0,0,0,194.94,577.42Z"/><path class="cls-2" d="M589.28,562.42a9.16,9.16,0,0,1-.16,2.13A9.16,9.16,0,0,0,589.28,562.42Z"/><path class="cls-2" d="M580.53,571.68a8.71,8.71,0,0,1-3.28-.64A8.71,8.71,0,0,0,580.53,571.68Z"/><path class="cls-2" d="M471.14,109a343.91,343.91,0,0,0-104,2.81c-.44.07-.91.17-1.36.27a332.45,332.45,0,0,0-63.05,19.08c-48,20.24-90,51.52-122,90.85-1.6,2-3.2,4-4.75,6l57.58-27.13h0c41.26-37.25,93.7-62.85,150.23-70.58.27,0,.56-.07.83-.12q9.24-1.23,18.59-1.83c101.85-7.38,198.37,33.94,266.75,104.8-.82-1.53-1.64-3.06-2.5-4.57q-3.79-6.84-7.9-13.47a323.83,323.83,0,0,0-24.52-34.32q-5.13-6.27-10.54-12.26c-.32-.34-.64-.69-.93-1-.44-.49-.89-1-1.36-1.45-.08-.1-.17-.18-.25-.27a345.65,345.65,0,0,0-119.49-51.49Q487.1,111,471.14,109Z"/><path class="cls-2" d="M20.61,260.94q3.18-9.34,6.83-18.45Q23.8,251.6,20.61,260.94Z"/><path class="cls-2" d="M545.62,390.17c8.38-4.23,17.88-8.91,25.71-12.73l1.53-.74c1.53-.77,3-1.46,4.28-2.1h0C568.61,378.75,556.22,384.81,545.62,390.17Z"/><path class="cls-2" d="M533,396.71l1-.54-2.58,1.39Z"/><path class="cls-5" d="M531.17,397.67l-1.14.63"/><path class="cls-5" d="M362.33,360.91c2.94-2.66,5.74-4.93,8.25-6.81"/><path class="cls-2" d="M546.05,655.16c2.51-2.85,5-5.76,7.29-8.71,2.51-3.08,4.92-6.18,7.26-9.36,1.16-1.52,2.27-3.05,3.35-4.63.93-1.33,1.87-2.68,2.78-4,.3-.42.57-.86.86-1.28.64-.93,1.26-1.87,1.82-2.81.72-1.05,1.41-2.14,2.1-3.22.27-.42.54-.84.78-1.28A249.54,249.54,0,0,0,589,588.4l-.3.09A27.19,27.19,0,0,1,577,589.55a25.45,25.45,0,0,1-6-1.5,27,27,0,0,1-13.32-10.95c-.41-.66-.79-1.33-1.14-2-2.72,6.54-5.64,12.88-8.67,18.89-29.2,56.34-79.83,94.87-137.84,114.06h.13a323.29,323.29,0,0,0,59-10.27,318.56,318.56,0,0,0,50.67-18.46l2-1h0c.72-.34,1.41-.71,2.12-1.05A285.83,285.83,0,0,0,546.05,655.16Z"/><polygon class="cls-2" points="170.91 282.83 170.98 282.87 170.99 282.86 170.91 282.83"/><polygon class="cls-2" points="483.81 301.16 482.72 301.66 482.73 301.66 482.76 301.66 483.81 301.16 483.81 301.16"/><path class="cls-3" d="M384.32,713.71a328.38,328.38,0,0,1-62.81-6c-3.91-.75-8-1.63-12.15-2.6-3.9-.92-7.43-1.82-10.83-2.76l-.51-.13a328.66,328.66,0,0,1-55.4-20.81c-5.8-2.77-11.75-5.86-17.68-9.16a331.37,331.37,0,0,1-41.32-27.32c-4.71-3.67-9.28-7.4-13.57-11.12a325.92,325.92,0,0,1-32-31.61c-3.61-4.07-7.15-8.27-10.52-12.48A332.62,332.62,0,0,1,103,554.59c-2.87-4.74-5.45-9.24-7.89-13.74s-4.82-9.22-7.46-14.74L87,524.63c-.46-1-.92-1.92-1.36-2.88l-.33-.74c-2.86-6.28-5.5-12.58-7.85-18.76-1.91-4.93-3.7-10-5.32-14.94-3-9.28-5.65-18.68-7.77-27.94l-.1-.42v-.43c-.42-9.89-.4-19.95,0-29.88a367.46,367.46,0,0,1,4.94-46.35,381.87,381.87,0,0,1,118.2-216.82c64.33-58.75,146.26-91.1,230.71-91.1a350.92,350.92,0,0,1,52.16,3.95c6.45,1,12.88,2.22,19.15,3.56a442.38,442.38,0,0,1,51.43,14.84l.35.13.32.17a330.17,330.17,0,0,1,40.34,26.05c5.06,3.85,9.56,7.44,13.75,11a327.84,327.84,0,0,1,26.74,25.25l-5.94,7.15a343.53,343.53,0,0,0-114.89-47.64c-10.22-2.19-20.64-4-31-5.21a360.07,360.07,0,0,0-43-2.62A327.81,327.81,0,0,0,368,116.39c-.45.07-.84.15-1.2.23a329.66,329.66,0,0,0-62.26,18.84c-47.11,19.87-88.67,50.81-120.14,89.48-1.59,1.95-3.18,3.92-4.72,5.92l-.7.9-13.52,6.36-.45.24a91,91,0,0,0-11.09,7.49c-8.67,6.63-20.65,17.79-28.62,33.42A76.17,76.17,0,0,0,116.79,314V461.44a53.29,53.29,0,0,0,2,5.46A45.35,45.35,0,0,0,126.22,479,41.9,41.9,0,0,0,138.51,489l1.52.82.63,1.62a219.33,219.33,0,0,0,58.21,84l.42.41a258.58,258.58,0,0,0,73.08,45.82,183.15,183.15,0,0,0,67.26,12.77c42.83,0,85.75-15.08,120.86-42.46l7.56-5.89v11.48a34.28,34.28,0,0,0,6.06,19.59A33.51,33.51,0,0,0,485,627.23a31.63,31.63,0,0,0,15.82,4.23q.63,0,1.26,0c14.84-.57,27.48-11.79,30.72-27.28a36.46,36.46,0,0,0,.8-7.54l0-58.43h5.23c9.42-4.19,18.59-8.29,27.23-12.16l3.53-1.58,5.47,4.33-.48,2.76c-.47,2.62-1,5.4-1.73,8.49l-.48,2.13-1.94,1a21.67,21.67,0,0,0-1.94,1.11l-.22.13a8,8,0,0,0-.82.58,22.09,22.09,0,0,0-8.94,20.83,22.45,22.45,0,0,0,1.12,4.63l.23.53a21.19,21.19,0,0,0,.89,2l1,1.93-.84,2c-2.71,6.54-5.68,13-8.81,19.21-28.2,54.42-78.11,95.75-140.55,116.4l-.55.18-.57,0c-1.4.11-2.64.2-3.87.27C399.27,713.46,391.77,713.71,384.32,713.71Z"/><path class="cls-3" d="M107.05,552.17a327,327,0,0,0,24.14,34.59q5,6.27,10.38,12.31a321.12,321.12,0,0,0,31.55,31.16q6.52,5.65,13.37,11a327.23,327.23,0,0,0,40.73,26.93c5.7,3.18,11.52,6.21,17.44,9a322.59,322.59,0,0,0,54.58,20.5l.54.14q5.28,1.44,10.64,2.71,6,1.4,12,2.56a322.37,322.37,0,0,0,61.92,6q11.08,0,22-.74c1.26-.07,2.53-.17,3.79-.26,58-19.19,108.64-57.72,137.84-114.06,3-6,6-12.35,8.67-18.89a22.9,22.9,0,0,1-1.07-2.37c-.1-.24-.2-.46-.3-.71a26.4,26.4,0,0,1-1.35-5.61,26.84,26.84,0,0,1,10.73-25.14,12.47,12.47,0,0,1,1.33-.91h0a24.69,24.69,0,0,1,2.35-1.35c.62-2.76,1.19-5.52,1.68-8.28l-1.05-.83-.94.42c-8.92,4-18.4,8.23-28.15,12.56h-1.53l0,43.38h0v10.36a41.2,41.2,0,0,1-.89,8.5c-3.57,17-17.68,30.33-35.13,31a36.22,36.22,0,0,1-19.59-4.82,37.91,37.91,0,0,1-12.43-11.48,39,39,0,0,1-6.89-22.25v-1.89C410.32,637,338,652.54,270.56,626a263.23,263.23,0,0,1-74.31-46.58,5.94,5.94,0,0,1-.52-.49,224.57,224.57,0,0,1-59.44-85.82,46.56,46.56,0,0,1-13.62-11,49.76,49.76,0,0,1-8.19-13.34,57.68,57.68,0,0,1-2.38-6.63V314a80.41,80.41,0,0,1,9-36.84c8.36-16.4,20.85-28.06,29.92-35a94.48,94.48,0,0,1,11.8-8l.61-.32,11.45-5.39L176,228c1.57-2,3.18-4,4.8-6,32-39.33,74-70.61,122-90.85a332.45,332.45,0,0,1,63.05-19.08c.45-.1.92-.2,1.36-.27a343.91,343.91,0,0,1,104-2.81q16,1.95,31.38,5.28A348.78,348.78,0,0,1,619,162.54a321.31,321.31,0,0,0-26.37-24.89c-4.41-3.75-8.94-7.34-13.54-10.84a322.58,322.58,0,0,0-39.76-25.67,435.68,435.68,0,0,0-50.84-14.68q-9.48-2-18.87-3.51C270,52.81,104.79,201.53,73.84,383.08A362.83,362.83,0,0,0,69,428.85q-.66,14.65,0,29.48c2.13,9.34,4.71,18.53,7.65,27.53q2.43,7.45,5.24,14.72,3.58,9.38,7.73,18.47c.12.25.22.5.33.75.67,1.44,1.37,2.86,2.06,4.29,2.34,4.91,4.77,9.77,7.35,14.54Q103,545.49,107.05,552.17Z"/><path class="cls-2" d="M68.93,428.5a362.8,362.8,0,0,1,4.85-45.77C104.66,200.45,270.09,51.26,469.59,83q9.39,1.48,18.87,3.51a435.68,435.68,0,0,1,50.84,14.68c-.52-.3-1.06-.57-1.58-.87q-8.67-4.72-17.7-8.88a320.53,320.53,0,0,0-55.76-19.85Q451.81,68.38,439,66.18A323.25,323.25,0,0,0,164.33,148a325.43,325.43,0,0,0-58.94,73.11q-6.57,11.11-12.26,22.8a319.6,319.6,0,0,0-21,55.49c-1.75,6.35-3.32,12.78-4.65,19.28a320.43,320.43,0,0,0-6.43,48.72q-.48,8.61-.49,17.33v.57q0,4.69.15,9.35a314.83,314.83,0,0,0,2.49,32c.09.82.22,1.63.32,2.44q1.07,8.06,2.58,15.95c.81,4.44,1.75,8.84,2.76,13.2Q68.25,443.29,68.93,428.5Z"/><path class="cls-6" d="M769.74,359.63c-.14-2.16-.31-4.32-.49-6.47q-1.37-16.37-4.07-32.34-.9-5.32-1.94-10.59-1.54-7.83-3.42-15.54c-.67-2.73-1.36-5.46-2.09-8.17q-2.68-10.15-5.93-20.1c-1.29-4-2.62-7.93-4-11.86-1.77-4.9-3.64-9.72-5.58-14.52q-5.92-14.46-12.95-28.32c-1.56-3.07-3.16-6.13-4.8-9.15-1.85-3.44-3.77-6.83-5.74-10.2-.66-1.12-1.3-2.26-2-3.37-1.78-3-3.61-6-5.48-9q-5.6-8.88-11.68-17.43-3-4.28-6.2-8.46-4.8-6.39-9.85-12.56-6.88-8.42-14.25-16.44T654.1,109.53q-3-2.91-6.05-5.78t-6.18-5.67q-4.33-3.87-8.77-7.6-13.32-11.22-27.64-21.23c-5-3.47-10-6.82-15.17-10.07a382,382,0,0,0-33.78-19q-5.81-2.88-11.71-5.58-4.75-2.18-9.57-4.22t-9.69-3.95q-5.85-2.3-11.81-4.41t-12-4q-17.65-5.61-36-9.53Q456,6.37,446.1,4.79t-20-2.65Q416.05,1.09,405.84.54T385.29,0q-4.57,0-9.12.11-9.1.21-18.09.85c-3,.21-6,.46-9,.74-5.46.49-10.9,1.13-16.29,1.87q-11.67,1.59-23.1,3.88t-22.62,5.23a383.12,383.12,0,0,0-94.62,39.13q-9.78,5.67-19.18,11.89-4.71,3.1-9.31,6.35-13.81,9.72-26.71,20.6-8.59,7.25-16.75,15t-15.86,15.91q-3.84,4.09-7.57,8.3a386.19,386.19,0,0,0-51.49,73.75q-5.53,10.28-10.45,20.93-4.1,8.88-7.73,18t-6.83,18.45q-1.71,4.95-3.27,9.95t-3,10.06q-3.48,12.36-6.15,25T3.72,331.62q-.63,4.49-1.15,9c-.35,3-.66,6.05-.95,9.07s-.5,5.87-.71,8.82Q0,371.79,0,385.29c0,3.62.05,7.24.15,10.83.05,2,.12,4,.22,6,.15,3.59.37,7.16.61,10.73A379.87,379.87,0,0,0,6.52,456c.05.28.1.52.15.79.91,5,1.95,10,3.08,14.87q3.57,15.44,8.34,30.4,1.59,5,3.3,9.9c1.7,4.93,3.52,9.78,5.44,14.6a380.08,380.08,0,0,0,17.31,37.67q1.81,3.45,3.69,6.87t3.85,6.77q2.63,4.54,5.38,9t5.63,8.85q5.73,8.78,11.93,17.21,2.37,3.21,4.78,6.36t4.9,6.25q3.38,4.23,6.89,8.37,7,8.28,14.47,16.16,3.74,3.93,7.56,7.77c2,1.95,4,3.9,6,5.82s4,3.83,6.1,5.7q4,3.66,8.08,7.2t8.29,7q8.39,6.87,17.18,13.27c.74.56,1.5,1.11,2.27,1.65,1.25.91,2.53,1.82,3.81,2.68,3.65,2.59,7.34,5.1,11.11,7.51q5.35,3.48,10.82,6.78a381.85,381.85,0,0,0,33.86,18.18c6.2,3,12.51,5.74,18.88,8.35q7,2.88,14.21,5.49,10.76,3.91,21.8,7.21,3.67,1.1,7.39,2.12,7.41,2.06,14.95,3.82,12.85,3,26,5.07,11.86,1.91,24,3.09c2.69.26,5.39.5,8.09.7l.42,0q14.33,1.08,28.9,1.09,7.27,0,14.47-.28t14.33-.81a381.41,381.41,0,0,0,82.24-15.23q5.64-1.71,11.22-3.57c.61-.2,1.2-.4,1.79-.62q16.16-5.51,31.64-12.38,10.31-4.58,20.3-9.72,15-7.72,29.18-16.7,9.46-6,18.54-12.48t17.76-13.5a388,388,0,0,0,33-29.91q3.63-3.68,7.15-7.45a386.32,386.32,0,0,0,44.23-57.27l.78-1.24.79-1.25q1.34-2.13,2.64-4.3,6.82-11.31,12.9-23.12,3.38-6.57,6.51-13.3a380.64,380.64,0,0,0,16.46-41.55c0-.11.07-.22.11-.32s.07-.21.11-.32,0,0,0-.05c.07-.19.13-.38.19-.57s.14-.38.2-.56q1.59-4.92,3.06-9.88t2.8-10q3.21-12.07,5.66-24.46,1.21-6.18,2.23-12.44t1.84-12.59h0c0-.27.07-.51.09-.78a.21.21,0,0,1,0-.13c.27-2.41.56-4.87.84-7.33.18-1.75.32-3.51.48-5.26s.34-3.5.48-5.26q.35-4.36.6-8.78c.17-2.94.29-5.89.38-8.84q.25-6.51.25-13c0-2.6,0-5.18-.08-7.76s-.12-5.15-.22-7.73c0-1-.07-1.94-.15-2.9,0-.27,0-.52,0-.77Q770,362.88,769.74,359.63ZM297.88,697.31A319.26,319.26,0,0,1,243.6,676.8c-5.88-2.83-11.67-5.86-17.33-9a324.71,324.71,0,0,1-40.5-26.94q-6.79-5.31-13.3-11a320.38,320.38,0,0,1-31.36-31.17q-5.33-6-10.32-12.31a326.28,326.28,0,0,1-24-34.59c-2.68-4.45-5.27-9-7.73-13.54s-4.86-9.39-7.14-14.18c-.69-1.43-1.39-2.85-2.06-4.29-.11-.25-.21-.5-.33-.75Q85.39,510,81.8,500.58q-2.8-7.27-5.24-14.72c-2.94-9-5.52-18.19-7.65-27.53l0-.12h0c-1-4.36-1.95-8.76-2.76-13.2q-1.52-7.89-2.58-15.95c-.1-.81-.23-1.62-.32-2.44a314.83,314.83,0,0,1-2.49-32q-.15-4.65-.15-9.35v-.57q0-8.72.49-17.33a320.43,320.43,0,0,1,6.43-48.72c1.33-6.5,2.9-12.93,4.65-19.28a319.6,319.6,0,0,1,21-55.49q5.69-11.67,12.26-22.8A323.48,323.48,0,0,1,384.32,61.55,322.15,322.15,0,0,1,439,66.18q12.81,2.17,25.28,5.36A320.53,320.53,0,0,1,520,91.39q9,4.17,17.7,8.88c.52.3,1.06.57,1.58.87a322.58,322.58,0,0,1,39.76,25.67c4.6,3.5,9.13,7.09,13.54,10.84A321.31,321.31,0,0,1,619,162.54c1,1.07,2,2.12,3,3.2.08.09.17.17.25.27.47.49.92,1,1.36,1.45.29.34.61.69.93,1q5.4,6,10.54,12.26a323.83,323.83,0,0,1,24.52,34.32q4.1,6.65,7.9,13.47c.86,1.51,1.68,3,2.5,4.57l.31.57.81,1.58h0A316.05,316.05,0,0,1,685.29,266q2.88,7.2,5.42,14.6c2.65,7.8,5,15.73,7.11,23.81.18.67.33,1.33.5,2,.22.87.45,1.74.66,2.62q1.47,6.06,2.71,12.19c1,5.22,2,10.51,2.78,15.83a320.21,320.21,0,0,1,3.17,32.05c.23,4,.35,8,.4,12,0,1.38,0,2.76,0,4.14,0,4.38-.1,8.74-.27,13.1-.11,3-.29,6.05-.5,9.06v.09c0,.38,0,.76-.06,1.14s-.05.74-.08,1.08h0c-.34,4.65-.79,9.28-1.35,13.86q-1.37,11.7-3.6,23.09-1.85,9.68-4.28,19.11a320.72,320.72,0,0,1-19.5,54.75q-5.31,11.49-11.45,22.48c-1.28,2.27-2.62,4.52-4,6.77-.53.89-1,1.8-1.56,2.68q-3,4.92-6.13,9.73a327.84,327.84,0,0,1-41.56,51.23Q605.2,622.1,596,630c-.69.61-1.39,1.18-2.09,1.78s-1.4,1.23-2.12,1.81q-11.67,9.79-24.25,18.47A326.72,326.72,0,0,1,524,677.28c-.71.34-1.4.71-2.12,1.05h0l-2,1a318.56,318.56,0,0,1-50.67,18.46,323.29,323.29,0,0,1-59,10.27h-.13c-1.26.09-2.53.19-3.79.26q-10.89.74-22,.74a322.37,322.37,0,0,1-61.92-6q-6-1.16-12-2.56c-3.57-.83-7.12-1.76-10.64-2.71l-.54-.14C298.79,697.54,298.33,697.44,297.88,697.31Z"/><path class="cls-6" d="M571,588.05a25.45,25.45,0,0,0,6,1.5,27.19,27.19,0,0,0,11.72-1.06l.3-.09a26.83,26.83,0,0,0,18.14-29,24.8,24.8,0,0,0-1.08-4.77,25.75,25.75,0,0,0-3.28-6.7.31.31,0,0,0-.15-.19,26.73,26.73,0,0,0-34.4-8.74,24.69,24.69,0,0,0-2.35,1.35h0a12.47,12.47,0,0,0-1.33.91,26.84,26.84,0,0,0-10.73,25.14,26.4,26.4,0,0,0,1.35,5.61c.1.25.2.47.3.71a22.9,22.9,0,0,0,1.07,2.37c.35.69.73,1.36,1.14,2A27,27,0,0,0,571,588.05Zm.76-26.27a8.5,8.5,0,0,1,.25-1.28,8.41,8.41,0,0,1,1.49-3,8.59,8.59,0,0,1,4.59-3.07,9.12,9.12,0,0,1,2.1-.31,8.76,8.76,0,0,1,2,.17,9,9,0,0,1,1.86.59,8.83,8.83,0,0,1,3,2.26,8.66,8.66,0,0,1,1.83,3.34,8.45,8.45,0,0,1,.32,1.95,9.16,9.16,0,0,1-.16,2.13c0,.24-.07.48-.13.73a8.41,8.41,0,0,1-1.49,3,8.59,8.59,0,0,1-4.59,3.07,9.07,9.07,0,0,1-2.38.32,8.71,8.71,0,0,1-3.28-.64,8.81,8.81,0,0,1-1.9-1.06,7.9,7.9,0,0,1-.84-.69,9,9,0,0,1-.79-.84A8.74,8.74,0,0,1,571.8,561.78Z"/><path class="cls-7" d="M354.55,371.91l-83.18-38.16-47.05-21.57-78.2-35.88,3.74-4.79c1.48-1.77,3.07-3.51,4.73-5.18A89.68,89.68,0,0,1,180,248.56L340.56,173a58.62,58.62,0,0,1,19.91-5.39c1.7-.15,3.43-.23,5.13-.23a59,59,0,0,1,15.24,2,56.67,56.67,0,0,1,11.66,4.45L430.08,193l64.57,32.84,17.65,8.93,47.2,23.78,1.47.73c.8.39,1.59.78,2.37,1.18L572,264.8l-9,4.16-179.34,81.9-.54.26c-.47.26-1.71,1-3.51,2.13-2,1.29-4.09,2.74-6.15,4.28-2.72,2.05-5.38,4.25-7.91,6.54-2.25,2-4.42,4.17-6.46,6.35l-1.39,1.49Z"/><path class="cls-7" d="M382.16,587.7a29,29,0,0,1-7.89-1.25,51.3,51.3,0,0,1-5.45-1.93c-1.35-.57-2.77-1.22-4.22-1.95-2.41-1.2-5.09-2.52-7.92-3.9L351,575.86V427.2a59.93,59.93,0,0,1,.67-8.85,61.38,61.38,0,0,1,4-14.28,67.44,67.44,0,0,1,3.66-7.51A78.14,78.14,0,0,1,368.2,384a93.8,93.8,0,0,1,21.59-18.29l.22-.13,200-91.3,2,1c5.84,2.88,10.77,5.28,14.91,7.27,1.88.9,3.59,1.72,5.11,2.43l.37.18c2.43,1.13,4.26,2,5.54,2.51a17,17,0,0,1,1.6.8c.27.15.53.31.79.47s.5.32.75.5c.41.28.77.55,1.11.83s.91.76,1,.87l.26.24c.37.35.73.72,1.08,1.09l.34.37.09.12a28,28,0,0,1,2.91,4A44.44,44.44,0,0,1,631.7,305l.19.51c.21.61.41,1.22.61,1.84l.34,1.09c.23.76.44,1.55.64,2.34,0,0,.45,1.7.56,2.17.2.83.37,1.67.54,2.5s.29,1.42.42,2.12.28,1.61.41,2.4c.1.62.18,1.23.27,1.85s.18,1.35.26,2c.2,1.69.36,3.33.48,4.91.08,1,.14,2.08.18,3.07l0,.72c0,.73,0,1.46,0,2.16v1.23c0,.8,0,1.59,0,2.29V452.91a34.8,34.8,0,0,1-1.94,10.36,39.83,39.83,0,0,1-2.08,5,36.92,36.92,0,0,1-17.79,16.91l-1,.44c-2,.95-4.88,2.25-8.34,3.82l-12.65,5.72-26.15,11.75L537.91,519.8l-2.16-1.44-2.3-1.36.17-2.56V489.17l2.67-1.27,57.17-25.83a20.43,20.43,0,0,0,2.06-1.11c.3-.17.61-.36.9-.56a20.55,20.55,0,0,0,1.69-1.2l.37-.32c.61-.53,1-.94,1.46-1.36s.6-.63.89-1,.69-.81,1-1.24.47-.66.7-1,.63-1,.91-1.46c.12-.23.26-.48.38-.73a20.39,20.39,0,0,0,.94-2.08l4.51,1.33-4.4-1.61a23.59,23.59,0,0,0,.68-2.26l.08-.33a21.67,21.67,0,0,0,.47-2.79l0-.24c0-.59.09-1.2.09-1.8V335a21.52,21.52,0,0,0-1-6.43,22.52,22.52,0,0,0-1.18-3c-.24-.48-.49-.95-.76-1.41s-.55-.91-.86-1.36a21.37,21.37,0,0,0-4.31-4.63,20.59,20.59,0,0,0-1.76-1.25,21,21,0,0,0-2.9-1.59,21.58,21.58,0,0,0-3.07-1.09,21.25,21.25,0,0,0-14.53,1.14l-179.46,81a21.56,21.56,0,0,0-11.58,12.92,21.1,21.1,0,0,0-.81,3.27c-.09.57-.16,1.13-.21,1.7s-.06,1.14-.06,1.72V522.26a21.17,21.17,0,0,0,1.05,6.8c.23.68.5,1.36.8,2a20.78,20.78,0,0,0,5.36,7.3,24,24,0,0,0,2.48,1.87c.42.27.8.49,1.18.71a22,22,0,0,0,2.39,1.14,22.58,22.58,0,0,0,2.56.85,20.84,20.84,0,0,0,5.33.69,20.27,20.27,0,0,0,4.38-.48c.73-.16,1.45-.36,2.16-.59a22.56,22.56,0,0,0,2.14-.84l52.13-23.5V551.6l-77.3,34.46-.86.38-.7.57-1,.26a14.58,14.58,0,0,1-3.68.43Z"/><path class="cls-8" d="M499.44,610.09a15.54,15.54,0,0,1-3.11-.37,12.07,12.07,0,0,1-1.77-.5,14.8,14.8,0,0,1-1.63-.7,15.6,15.6,0,0,1-8.49-14v-151a8.9,8.9,0,0,0-.42-2.7,8,8,0,0,0-.33-.86,8.52,8.52,0,0,0-.79-1.45,8.12,8.12,0,0,0-1.06-1.27,22.28,22.28,0,0,0-4.31-3.39,23.6,23.6,0,0,0-4.63-2.16,30.66,30.66,0,0,0-9.84-1.61h-.27a39.62,39.62,0,0,0-8.18.87c-.72.16-1.23.3-1.47.37l-.5.14-52.5,21.91V415.61a5.32,5.32,0,0,1,.83-2.85,5.24,5.24,0,0,1,2.08-1.9L580,331a5,5,0,0,1,2.18-.49,5.28,5.28,0,0,1,2.52.65l.19.1.2.13a5.21,5.21,0,0,1,2.38,4.44v38.87l-9.57,4.63c-8.47,4.12-20.75,10.13-31.16,15.39-4.25,2.15-8.2,4.18-11.47,5.91L532.76,402l-2.7,1.5a30.05,30.05,0,0,0-4,2.76,28.34,28.34,0,0,0-3.25,3.14c-.63.71-1.19,1.42-1.72,2.15s-1,1.47-1.47,2.23a33.16,33.16,0,0,0-3.13,7.09,39.14,39.14,0,0,0-1.47,7.06,36,36,0,0,0-.21,5.07v.31c0,.37,0,.86.08,1.34l0,.66V594.87a15.38,15.38,0,0,1-.13,1.93,13.8,13.8,0,0,1-.36,1.81,15,15,0,0,1-2.4,5.17,15.48,15.48,0,0,1-1.89,2.15,15.24,15.24,0,0,1-10.43,4.16Z"/><path class="cls-8" d="M574.51,569.29a7.9,7.9,0,0,0,.84.69,8.81,8.81,0,0,0,1.9,1.06,8.71,8.71,0,0,0,3.28.64,9.07,9.07,0,0,0,2.38-.32,8.59,8.59,0,0,0,4.59-3.07,8.41,8.41,0,0,0,1.49-3c.06-.25.09-.49.13-.73a9.16,9.16,0,0,0,.16-2.13,8.45,8.45,0,0,0-.32-1.95,8.66,8.66,0,0,0-1.83-3.34,8.83,8.83,0,0,0-3-2.26,9,9,0,0,0-1.86-.59,8.76,8.76,0,0,0-2-.17,9.12,9.12,0,0,0-2.1.31,8.59,8.59,0,0,0-4.59,3.07,8.41,8.41,0,0,0-1.49,3,8.5,8.5,0,0,0-.25,1.28,8.74,8.74,0,0,0,1.92,6.67A9,9,0,0,0,574.51,569.29Z"/><path class="cls-6" d="M538.36,430.45c0-.26.06-.52.1-.8a13.87,13.87,0,0,1,.92-3.47,8.31,8.31,0,0,1,1.53-2.4,6.27,6.27,0,0,1,1.54-1.23l1.59-.89c1.15-.64,2.49-1.36,4-2.14,5.93-3.13,14.19-7.27,22.39-11.33l9.08-4.46,5.65-2.76v41.3a.63.63,0,0,1-.1.32.76.76,0,0,1-.28.25l-.71.32-44,19.85-1,.44-.72.32-.08,0V433.11A18.29,18.29,0,0,1,538.36,430.45Zm51.56-151c.08,0,.16.07.24.12h0c5.66,2.78,10.6,5.19,14.74,7.17,1.35.65,2.61,1.25,3.78,1.79.47.24.93.46,1.37.66l.59.28.85.39c1.67.79,3,1.4,4.14,1.87a5,5,0,0,0,.49.22c.24.1.49.23.74.35a3.5,3.5,0,0,1,.42.24l.58.34.25.16c.12.07.22.16.34.24.28.19.55.4.82.61s.29.21.42.33l0,.05.32.29.21.19,0,0a3.86,3.86,0,0,1,.5.49c.19.19.39.42.59.64h0a25.43,25.43,0,0,1,2.52,3.46l0,.05v0a40.09,40.09,0,0,1,3.34,7.13l.09.25c0,.07.05.15.08.22.19.56.38,1.13.56,1.7h0c.13.32.23.67.33,1,.17.54.32,1.11.46,1.67.09.3.15.61.23.9.15.56.3,1.12.43,1.68.06.24.13.46.18.7.12.55.22,1.11.34,1.67s.27,1.35.39,2c0,.25.09.49.13.74.09.52.18,1,.26,1.54s.18,1.2.26,1.8a.88.88,0,0,1,0,.16c.1.56.18,1.13.23,1.67v.06c.19,1.61.35,3.17.46,4.69l0,.3c.06.9.11,1.78.15,2.62,0,.24,0,.45,0,.68,0,.58,0,1.17,0,1.72a.25.25,0,0,1,0,.17s0,0,0,0a.12.12,0,0,1,0,.12s0,0,0,0v1.16h0c0,.74,0,1.48,0,2.14h0v15.81h0V371h0V416.7h0v10.87h0v6.22h0v19.09a30,30,0,0,1-1.68,8.85,34,34,0,0,1-1.83,4.33,32.24,32.24,0,0,1-15.6,14.79c-.29.15-.61.27-.92.44-2,.95-4.87,2.24-8.32,3.81l-7.19,3.25L591,490.84,577.4,497l-6.56,2.95-1,.43-.75.34-4.29,1.92-26.49,11.88-.05,0v-22.9l.05,0L566.13,479l.31-.15L594.94,466l.44-.19a27.15,27.15,0,0,0,2.5-1.34c.38-.22.76-.45,1.12-.69a24.52,24.52,0,0,0,2-1.47l.14-.1.51-.45c.55-.47,1.07-1,1.58-1.49a14.69,14.69,0,0,0,1.08-1.16c.43-.49.84-1,1.23-1.51s.58-.81.86-1.22c.38-.58.76-1.17,1.09-1.77.18-.29.33-.59.48-.89a27.21,27.21,0,0,0,1.14-2.53,3.42,3.42,0,0,1,.13-.34,28.36,28.36,0,0,0,.83-2.76c0-.18.09-.35.13-.53a27.17,27.17,0,0,0,.53-3.25v-.05c.08-.8.13-1.62.13-2.45V335.29a26.27,26.27,0,0,0-2.63-11.46c-.29-.58-.59-1.16-.92-1.72s-.68-1.11-1.05-1.65a23.05,23.05,0,0,0-1.54-2,26.07,26.07,0,0,0-5.86-5.15,26.1,26.1,0,0,0-3.52-1.91,26.71,26.71,0,0,0-3.76-1.34,26,26,0,0,0-17.68,1.39l-34.87,15.74-2.93,1.32,0,0-141.6,63.91A25.94,25.94,0,0,0,384,401a26.51,26.51,0,0,0-3.66,7.19,25.57,25.57,0,0,0-1,4c-.11.68-.19,1.37-.24,2.06s-.09,1.4-.09,2.1v106a25.21,25.21,0,0,0,1.3,8.06,24.45,24.45,0,0,0,1,2.5,25.53,25.53,0,0,0,6.54,8.88,27.45,27.45,0,0,0,3,2.28c.44.29.91.56,1.37.83a26.4,26.4,0,0,0,3,1.43l.43.14a26.28,26.28,0,0,0,2.68.89,25.54,25.54,0,0,0,6.53.85,25.79,25.79,0,0,0,8-1.31,27.28,27.28,0,0,0,2.59-1l.19-.09,37.63-17L455,528l6-2.7v23.53l-23.66,10.56-14.29,6.37-3.24,1.45-1,.44-4.38,2-.42.19-4.11,1.84c-1.47.66-2.89,1.27-4.24,1.88l-3.85,1.72-7,3.1-.15.07-2.26,1-1,.44c-.3.12-.56.24-.83.36L388,581.38l-.6.27a4.88,4.88,0,0,0-.49.22l-.16.07-.18.08-1.47.64-.42.34a9.63,9.63,0,0,1-2.48.27,17.45,17.45,0,0,1-2.32-.17h0a28.16,28.16,0,0,1-4.29-.89,45.83,45.83,0,0,1-4.93-1.76c-1.22-.51-2.53-1.11-3.93-1.81-3.29-1.64-7.06-3.48-11.06-5.44v-146h0a55.18,55.18,0,0,1,.62-8.15,56.27,56.27,0,0,1,3.67-13.2,63.59,63.59,0,0,1,3.41-7,73.14,73.14,0,0,1,8.4-11.83,88.89,88.89,0,0,1,20.44-17.33l121.29-55.37.07,0,37.26-17,1.08-.5,15.17-6.91ZM405.29,474.85l.25-.1,1.95-.81,3.74-1.56,10.3-4.28.14-.07,14.88-6.14,10.74-4.42,3.17-1.31a7.77,7.77,0,0,1,1.73-.46l.3-.05a8,8,0,0,1,1.69,0l.13,0c.2,0,.4,0,.6.07s.65.2,1,.32l.2.06a1.39,1.39,0,0,0,.19.06s0,0,.07,0a3.14,3.14,0,0,1,.58.29,4.43,4.43,0,0,1,.56.35l0,0a2.92,2.92,0,0,1,.29.23l.2.16h0c.18.14.37.27.54.43s.22.22.34.34h0l.24.29a7.27,7.27,0,0,1,.86,1.22l.08.12a7.66,7.66,0,0,1,.6,1.55l.1.34a1.8,1.8,0,0,0,.06.22c0,.14,0,.29.07.44a6.7,6.7,0,0,1,.09,1.18v34.14l-55.35,25-.13,0-.14,0-.1,0c-.1,0-.19-.08-.19-.1s-.08-.08-.12-.13a.49.49,0,0,1-.17-.38V475.05l.22-.1h0ZM337.5,392.78a85.61,85.61,0,0,0-3.51,8.84,80.47,80.47,0,0,0-4.1,25.58v3.87h0v4.06h0v0h0V560l-3.71-1.87-15.6-7.85-31.53-15.85-17.69-8.83c-7.93-4-16-8-24-12l-11.85-5.9c-3.9-1.95-7.76-3.86-11.55-5.74l-17.78-8.78-.1-.05-13.85-6.78-1.22-.6-2.94-1.43-4-1.95-5.57-2.69-.78-.37c-6.61-3.17-11.89-5.64-15.36-7.17L151,471.5A19.83,19.83,0,0,1,148,470a22.26,22.26,0,0,1-1.86-1.24c-.58-.43-1.14-.89-1.66-1.36a26,26,0,0,1-6.62-9.76l0,0V314.49a54.79,54.79,0,0,1,.73-8.92c.23-1.43.52-2.83.85-4.2s.72-2.7,1.14-4l19.9,9.14h.05l9.11,4.19,7.49,3.44h0L191,320.47l.09.06,4.55,2.08L245,345.25l18.5,8.49,49.34,22.65,1.57.71.68.32,16.25,7.45,8.24,3.78C338.84,390,338.16,391.37,337.5,392.78ZM200,296.15l-7.55-3.46L171,282.87l-.07,0-12.1-5.55-.63-.29-4.73-2.17c.06-.07.13-.14.19-.22l-.19-.09h0c1.42-1.7,2.91-3.32,4.46-4.88A85.33,85.33,0,0,1,182,252.8l40.24-19L258.13,217l84-39.59.39-.18a54.24,54.24,0,0,1,18.34-5c1.56-.14,3.14-.21,4.71-.21a54.2,54.2,0,0,1,14,1.83,52.34,52.34,0,0,1,10.73,4.09l22.14,11.32,10.15,5.18,5.3,2.7,8.65,4.4,8.93,4.54L457,211.89,492.53,230c5.91,3,11.82,6,17.65,8.93l36,18.16,11.19,5.62c1.28.64,2.56,1.26,3.82,1.9l-.25.11-.08,0,.33.16L561,265l-29.49,13.48-2,.89-1.86.85-1.28.6-42.52,20.83h-2.27L382.33,347l-.75.37c-.31.17-1.69.94-3.8,2.29-1.7,1.09-3.86,2.56-6.32,4.41s-5.21,4.07-8.09,6.68c-2.16,1.95-4.38,4.12-6.61,6.51h-2.32l-11.53-5.29-20.39-9.36-.18-.08L294.1,339.55l-18.29-8.4-1.6-.72-.82-.39L227,308.79l-18.27-8.4h0l-.43-.19M453.61,426.35c-.86.19-1.47.35-1.76.44l-.77.22-.61.25-8.72,3.64L405.1,446.19l-.28.11V415.61a.65.65,0,0,1,.1-.34.66.66,0,0,1,.24-.23l149.39-67.4.11-.06,27.28-12.3a.5.5,0,0,1,.25-.08.69.69,0,0,1,.31.1.52.52,0,0,1,.3.54v36.23l-4.48,2.17-2.11,1a1.86,1.86,0,0,0-.34.18c-1.31.63-2.73,1.31-4.24,2.07l-1.51.73c-7.76,3.79-17.17,8.42-25.48,12.61-4.28,2.16-8.26,4.21-11.55,5.95l-1,.53c-.55.31-1.06.58-1.57.84l-.19.11-1.14.62-1.46.82a34.53,34.53,0,0,0-4.67,3.2,34.05,34.05,0,0,0-3.8,3.68c-.71.8-1.37,1.63-2,2.48s-1.18,1.71-1.7,2.59a37.25,37.25,0,0,0-3.58,8.1,43.22,43.22,0,0,0-1.65,7.92,41,41,0,0,0-.24,5.61c0,.59.05,1.16.09,1.7V596.53a11.07,11.07,0,0,1-.08,1.3,9.87,9.87,0,0,1-.25,1.25,10.42,10.42,0,0,1-1.67,3.62,10.92,10.92,0,0,1-1.31,1.49,10.55,10.55,0,0,1-7.38,2.87,11.08,11.08,0,0,1-2.19-.26,7.93,7.93,0,0,1-1.18-.33,10.7,10.7,0,0,1-7-10.28V443.49a13.71,13.71,0,0,0-.65-4.13,12.8,12.8,0,0,0-.49-1.3,13.47,13.47,0,0,0-2.84-4.17,27.57,27.57,0,0,0-5.2-4.08,28.73,28.73,0,0,0-5.53-2.58,35.07,35.07,0,0,0-11.33-1.86A43.83,43.83,0,0,0,453.61,426.35ZM566.9,528.53c.45-.2.89-.37,1.31-.57,16.1-7.21,30.23-13.59,40.6-18.26a2.6,2.6,0,0,0,.24-.13c6.7-3,11.79-5.34,14.82-6.77A61.12,61.12,0,0,0,638,493.74c.42-.34.84-.71,1.23-1.08.13-.1.23-.2.35-.3a56.7,56.7,0,0,0,15.34-24.25,55.06,55.06,0,0,0,2.81-16.59V337.73c.07-1,.12-2.9,0-5.49a116.67,116.67,0,0,0-5.22-32.67c-.14-.51-.34-1-.51-1.55s-.35-1-.54-1.49l0-.08h0A66.84,66.84,0,0,0,645.34,284a42.14,42.14,0,0,0-18.78-16.34c-1.43-.62-3.55-1.58-6.28-2.86-4-1.9-9.28-4.48-15.64-7.61-4.16-2-8.78-4.33-13.78-6.82l-4.09-2c-13.76-6.86-30-15-47.27-23.75-5.81-2.91-11.72-5.91-17.7-8.94-15.61-7.88-31.63-16-47.07-23.83-6-3.05-11.84-6.06-17.58-9C439.62,174,423.45,165.69,410.2,159l-10.58-5.42c-.89-.44-1.78-.91-2.61-1.33-.5-.24-.94-.49-1.41-.71L392.67,150c-.41-.19-.86-.42-1.3-.66a54.22,54.22,0,0,0-48.35-1l-3.94,1.84L234.37,199.47l-.76.37h0L176,227h0l-.05,0-1.06.5-11.45,5.39-.61.32a94.48,94.48,0,0,0-11.8,8c-9,7-21.12,18.51-29.29,34.64a81.43,81.43,0,0,0-7.27,20.48c-1.1,5.24-1.71,10.82-2.39,16.72V460.78c1.32,2.16,7.57,15.75,11.19,20a46.2,46.2,0,0,0,12.85,10.57c.24.13.45.28.69.41a5.66,5.66,0,0,0,.77.4,4.4,4.4,0,0,0,.51.29c1,.55,2.07,1,3.15,1.51,4.46,1.92,13.72,6.3,25.85,12.21,4.39,2.11,9.11,4.43,14.14,6.89q.52.27,1.08.51l.27.13c.81.42,1.62.81,2.46,1.23,14.4,7.12,30.9,15.29,47.61,23.64,5.91,3,60.1,31.16,60.1,31.16l22.11,10.61c5,2.44,10.49,5.08,15.93,7.73s10.58,5.15,15.47,7.55l2.08,1c.17.1,3.44,1.46,3.46,1.46l6.95,3.58a.67.67,0,0,1,.21.1c2.43,1.25,4.79,2.3,7,3.17A51.7,51.7,0,0,0,385.27,609c7.6,0,12.68-2.23,15.35-3.88,3.35-1.55,14.08-6.47,29.17-13.4,9-4.14,19.71-9,31.23-14.35l2.35-1.08v20.23a39,39,0,0,0,6.89,22.25,37.91,37.91,0,0,0,12.43,11.48,36.22,36.22,0,0,0,19.59,4.82c17.45-.67,31.56-14,35.13-31a41.2,41.2,0,0,0,.89-8.5V585.24l0-43.38H538S557.77,532.64,566.9,528.53Z"/><path class="cls-8" d="M538.3,461v2.82l.08,0,.72-.32,1-.44,44-19.85.71-.32a.76.76,0,0,0,.28-.25.63.63,0,0,0,.1-.32V401l-5.65,2.76-9.08,4.46c-8.2,4.06-16.46,8.2-22.39,11.33-1.49.78-2.83,1.5-4,2.14l-1.59.89a6.27,6.27,0,0,0-1.54,1.23,8.31,8.31,0,0,0-1.53,2.4,13.87,13.87,0,0,0-.92,3.47c0,.28-.07.54-.1.8a18.29,18.29,0,0,0-.06,2.66V461Z"/><path class="cls-8" d="M474.42,427.23a28.73,28.73,0,0,1,5.53,2.58,27.57,27.57,0,0,1,5.2,4.08,13.47,13.47,0,0,1,2.84,4.17,12.8,12.8,0,0,1,.49,1.3,13.71,13.71,0,0,1,.65,4.13v151a10.7,10.7,0,0,0,7,10.27,9.39,9.39,0,0,0,1.18.34,11.06,11.06,0,0,0,4.28.08,10.48,10.48,0,0,0,5.29-2.7,10.4,10.4,0,0,0,3-5.1,10.63,10.63,0,0,0,.25-1.25,11.38,11.38,0,0,0,.08-1.31V435c0-.54-.07-1.11-.09-1.7h0a40.62,40.62,0,0,1,.24-5.9,43.22,43.22,0,0,1,1.65-7.92,37.25,37.25,0,0,1,3.58-8.1c.52-.88,1.09-1.74,1.7-2.59s1.28-1.67,2-2.48a33.12,33.12,0,0,1,3.8-3.67,33.68,33.68,0,0,1,4.67-3.21l1.46-.81,1.14-.63.19-.1,2.56-1.38c3.29-1.74,7.27-3.79,11.55-5.95,10.5-5.3,22.78-11.31,31.23-15.42l2.45-1.19,4.48-2.17V335.84a.52.52,0,0,0-.3-.54.69.69,0,0,0-.31-.1.5.5,0,0,0-.25.08l-27.28,12.3-.11.06L405.16,415a.66.66,0,0,0-.24.23.65.65,0,0,0-.1.34V446.3l.28-.11,36.65-15.29,8.72-3.64.61-.25.77-.22c.29-.09.9-.25,1.76-.44a43.83,43.83,0,0,1,9.48-1A35.07,35.07,0,0,1,474.42,427.23Z"/><path class="cls-7" d="M158.81,277l12.1,5.55.08,0,21.42,9.83,7.55,3.45.19.1,7.58,3.47h0l18.53,8.52,47,21.57,2.46,1.13,18.57,8.52,28.83,13.23,20.7,9.49,11.69,5.37h0c2.26-2.43,4.53-4.64,6.73-6.63,2.94-2.66,5.74-4.93,8.25-6.81s4.7-3.38,6.42-4.48c2.16-1.39,3.57-2.17,3.88-2.34l.76-.37,102.17-46.66,43.83-20,1.86-.85,31.39-14.33.08,0,.25-.11c-1.26-.64-2.54-1.26-3.82-1.9l-11.19-5.62-36-18.16c-5.83-2.95-11.74-6-17.65-8.93L457,211.89l-11.43-5.82-8.93-4.54-8.65-4.4-5.3-2.7-10.15-5.18-22.14-11.32a52.34,52.34,0,0,0-10.73-4.09,54.2,54.2,0,0,0-14-1.83c-1.57,0-3.15.07-4.71.21a54.24,54.24,0,0,0-18.34,5l-.39.18-84,39.59-35.86,16.89L182,252.8a85.33,85.33,0,0,0-24.12,16.83c-1.55,1.56-3,3.18-4.46,4.88h0l.19.09,4.54,2.08Z"/><path class="cls-8" d="M460.7,462.22a7.18,7.18,0,0,0-.6-1.52l-.08-.12a7.29,7.29,0,0,0-.86-1.2l-.24-.29a7.49,7.49,0,0,0-.91-.78c-.17-.13-.32-.27-.49-.39l0,0a8,8,0,0,0-1.4-.72l-.2-.07a7.65,7.65,0,0,0-1.57-.38h-.13a6.83,6.83,0,0,0-1.69,0l-.3,0a7.39,7.39,0,0,0-1.73.46l-3.17,1.29-10.74,4.36-14.88,6.05-.14.07-10.3,4.22-3.74,1.54-1.95.79-.25.11-.23.09-.24.1V522a.49.49,0,0,0,.17.38s.05.09.12.13.09.07.19.1l.1,0,.14,0,.13,0,55.35-25V464.38a8.24,8.24,0,0,0-.22-1.82C460.77,462.45,460.73,462.34,460.7,462.22Z"/><path class="cls-7" d="M632,332.68c0-.23,0-.45,0-.68,0-.94-.11-1.93-.18-2.93-.11-1.51-.27-3.08-.46-4.68-.07-.63-.16-1.26-.25-1.9s-.16-1.19-.26-1.79q-.18-1.14-.39-2.28c-.12-.68-.25-1.35-.39-2s-.33-1.59-.52-2.37c-.13-.57-.28-1.12-.43-1.68-.22-.86-.44-1.73-.69-2.57l-.33-1c-.18-.58-.37-1.14-.56-1.7l-.17-.48a40.42,40.42,0,0,0-3.34-7.13l0-.07a24.25,24.25,0,0,0-2.52-3.46v0c-.36-.41-.74-.79-1.12-1.16l-.21-.19-.3-.25a6.4,6.4,0,0,0-.49-.42c-.27-.22-.54-.42-.82-.62s-.39-.27-.59-.39l-.58-.34c-.38-.21-.77-.42-1.16-.59-1.32-.56-3.2-1.42-5.48-2.48l-.59-.28-5.15-2.45c-4.14-2-9.09-4.4-14.74-7.18h0l-.24-.12-38,17.37-1.08.49-37.26,17-121.36,55.4A88.89,88.89,0,0,0,371.74,387a73,73,0,0,0-8.4,11.82,62.88,62.88,0,0,0-3.41,7,56.27,56.27,0,0,0-3.67,13.2,55.18,55.18,0,0,0-.62,8.15V572.94c4,2,7.77,3.8,11.06,5.44,1.4.7,2.71,1.3,3.93,1.82a47.83,47.83,0,0,0,4.93,1.75,24.1,24.1,0,0,0,6.62,1.07,10.67,10.67,0,0,0,2.48-.27l.42-.35,1.47-.63.18-.09,1.25-.56,2.64-1.17,4.09-1.83.15-.06,19.6-8.74,4.38-2,4.23-1.89,14.29-6.37L461,548.56V525.49l-6,2.7-1.69.77-37.63,17-.19.08a24.85,24.85,0,0,1-2.59,1c-.87.29-1.75.53-2.63.73a25.13,25.13,0,0,1-5.39.58,26,26,0,0,1-6.53-.84,26.74,26.74,0,0,1-6.1-2.47c-.46-.27-.93-.54-1.37-.83a25.15,25.15,0,0,1-3-2.28,25.91,25.91,0,0,1-8.82-19.44V416c0-.71,0-1.4.09-2.1s.13-1.38.24-2.06a25.57,25.57,0,0,1,1-4,26.51,26.51,0,0,1,3.66-7.19,25.94,25.94,0,0,1,10.45-8.53l141.65-63.94,2.93-1.32,34.87-15.74a26,26,0,0,1,17.68-1.39,25.51,25.51,0,0,1,3.76,1.34A26.1,26.1,0,0,1,598.9,313a26.29,26.29,0,0,1,5.86,5.14,24.78,24.78,0,0,1,1.54,2q.56.81,1.05,1.65c.33.56.63,1.14.92,1.72A26.27,26.27,0,0,1,610.9,335V442.35c0,.82,0,1.65-.13,2.45v0a26.85,26.85,0,0,1-.53,3.25c0,.18-.09.36-.13.53a28.36,28.36,0,0,1-.83,2.76c0,.11-.09.23-.13.34a25,25,0,0,1-1.14,2.53c-.15.3-.31.6-.48.89-.33.61-.71,1.19-1.09,1.77-.28.42-.56.82-.86,1.22s-.8,1-1.23,1.51-.7.79-1.08,1.17-1,1-1.58,1.49l-.65.55c-.65.52-1.34,1-2,1.47-.37.24-.74.46-1.12.68a24.93,24.93,0,0,1-2.5,1.34l-.44.2-28.5,12.87-.31.14L538.35,492.1l-.05,0v22.31l.05,0,26.49-11.88,4.29-1.92.75-.34,1-.43L577.4,497,591,490.84l5.45-2.46,7.19-3.25c3.45-1.57,6.28-2.86,8.32-3.81.31-.17.63-.29.92-.44a32.24,32.24,0,0,0,15.6-14.79,34,34,0,0,0,1.83-4.33,30,30,0,0,0,1.68-8.85V433.82h0v-6.22h0V416.71h0V371h0V353.85h0V338h0c0-.66,0-1.4,0-2.14h0v-1.16C632,334.08,632,333.39,632,332.68Z"/><path class="cls-7" d="M315.06,377.42l-2.25-1-49.34-22.65L245,345.25l-49.33-22.64-4.55-2.08-14-6.39h0l-7.49-3.44-9.11-4.18-.05,0-19.9-9.14c-.42,1.31-.8,2.65-1.14,4s-.62,2.77-.85,4.2a54.79,54.79,0,0,0-.73,8.92v143.1l0,0a26,26,0,0,0,6.62,9.76c.52.47,1.08.93,1.66,1.36A22.26,22.26,0,0,0,148,470,19.83,19.83,0,0,0,151,471.5l1.43.63c3.47,1.53,8.75,4,15.36,7.17l6.35,3.06,4,1.95,2.94,1.43,11.57,5.66,3.5,1.72.1.05L214,502c3.79,1.88,7.65,3.79,11.55,5.74l11.85,5.9c8,4,16,8,24,12l17.69,8.83,31.53,15.85,15.6,7.85,3.71,1.87V435.17h0v0h0v-4.06h0V427.2a80.47,80.47,0,0,1,4.1-25.58,85.61,85.61,0,0,1,3.51-8.84c.66-1.41,1.34-2.78,2.05-4.13l-8.24-3.78Z"/></svg>